<svg width="20" height="20" viewBox="0 0 20 20" fill="none" xmlns="http://www.w3.org/2000/svg">
<path d="M11.5625 3.58752C11.5453 3.59064 11.5281 3.59533 11.5125 3.60002C11.3625 3.62658 11.2422 3.73595 11.2 3.88127C11.1578 4.02814 11.2016 4.18439 11.3125 4.28752C11.5125 4.48752 11.7672 4.68752 12.1375 4.75002C12.4391 4.80002 12.9813 4.78752 13.65 4.78752C13.6656 4.89064 13.675 4.98908 13.7 5.13752C13.7531 5.45314 13.8344 5.90002 13.9375 6.40002H7.05L6.45 5.20002C6.47344 5.19845 6.50156 5.20002 6.525 5.20002C7.56563 5.20002 8 4.9172 8 4.63752C8 4.39689 7.79531 4.39689 7.475 4.43752H4.925C4.48438 4.43752 4.4 4.64064 4.4 5.00002C4.4 5.92033 4.94688 5.61564 5.65 5.37502L6.35 6.80002L5.4125 8.66252C4.97188 8.49377 4.49844 8.40002 4 8.40002C1.79531 8.40002 0 10.1953 0 12.4C0 14.6047 1.79531 16.4 4 16.4C6.07031 16.4 7.775 14.8188 7.975 12.8H9.6C9.68125 12.7985 9.75938 12.7719 9.825 12.725C9.83281 12.7219 9.84219 12.7172 9.85 12.7125C9.85469 12.7078 9.85781 12.7047 9.8625 12.7C9.87031 12.6969 9.87969 12.6922 9.8875 12.6875C9.8875 12.6828 9.8875 12.6797 9.8875 12.675C9.89219 12.6703 9.89531 12.6672 9.9 12.6625C9.91406 12.6469 9.92656 12.6297 9.9375 12.6125L14.2125 7.62502C14.2922 7.96252 14.3891 8.32189 14.4875 8.70002C13.0328 9.30002 12 10.7328 12 12.4C12 14.6047 13.7953 16.4 16 16.4C18.2047 16.4 20 14.6047 20 12.4C20 10.1953 18.2047 8.40002 16 8.40002C15.7422 8.40002 15.4938 8.42814 15.25 8.47502C15.0844 7.82658 14.9375 7.21877 14.825 6.70002C14.6719 5.99064 14.5547 5.41564 14.4875 5.01252C14.4531 4.81095 14.4406 4.64689 14.425 4.53752C14.4172 4.48283 14.4031 4.44064 14.4 4.41252C14.3969 4.38439 14.4 4.34064 14.4 4.40002C14.4 4.1797 14.2203 4.00002 14 4.00002C13 4.00002 12.4922 3.98752 12.2625 3.95002C12.0328 3.91252 12.0875 3.91252 11.8875 3.71252C11.8047 3.62345 11.6844 3.57814 11.5625 3.58752ZM7.45 7.20002H13.5375L9.6875 11.675L7.45 7.20002ZM6.8 7.70002L8.95 12H7.975C7.85156 10.7469 7.15 9.66877 6.1375 9.02502L6.8 7.70002ZM4 9.20002C4.37344 9.20002 4.72969 9.25783 5.0625 9.37502L3.6375 12.225C3.57656 12.35 3.58438 12.4969 3.65938 12.6141C3.73281 12.7297 3.86094 12.8016 4 12.8H7.175C6.97813 14.3813 5.63594 15.6 4 15.6C2.22813 15.6 0.8 14.1719 0.8 12.4C0.8 10.6281 2.22813 9.20002 4 9.20002ZM16 9.20002C17.7719 9.20002 19.2 10.6281 19.2 12.4C19.2 14.1719 17.7719 15.6 16 15.6C14.2281 15.6 12.8 14.1719 12.8 12.4C12.8 11.0969 13.575 9.98752 14.6875 9.48752C14.9453 10.4203 15.2531 11.4391 15.625 12.525C15.6516 12.6813 15.7672 12.8063 15.9188 12.8453C16.0719 12.8844 16.2328 12.8313 16.3313 12.7078C16.4297 12.5844 16.4469 12.4156 16.375 12.275C16.0063 11.1969 15.7016 10.1766 15.45 9.25002C15.6281 9.21877 15.8125 9.20002 16 9.20002ZM5.775 9.75002C6.52656 10.2531 7.05781 11.0578 7.175 12H4.65L5.775 9.75002Z" fill="white"/>
</svg>
