<svg width="17" height="17" viewBox="0 0 17 17" fill="none" xmlns="http://www.w3.org/2000/svg">
<path d="M6.12007 0.680054C5.93239 0.680054 5.78007 0.832034 5.78007 1.02005V1.70005C5.78007 1.88807 5.93239 2.04005 6.12007 2.04005H8.50007C8.68775 2.04005 8.84007 1.88807 8.84007 1.70005H9.86007V4.42005H9.18007C8.80843 4.42005 8.50007 4.72841 8.50007 5.10005V13.2601H8.16007C8.0699 13.2601 7.98343 13.2959 7.91967 13.3596C7.85591 13.4234 7.82008 13.5099 7.82007 13.6001V14.2801H7.48007C7.10041 14.2801 6.80007 13.9797 6.80007 13.6001V8.84005C6.80007 8.09296 6.18717 7.48005 5.44007 7.48005C4.69298 7.48005 4.08007 8.09296 4.08007 8.84005V11.9001C4.08007 12.2797 3.77974 12.5801 3.40007 12.5801C3.02041 12.5801 2.72007 12.2797 2.72007 11.9001V9.52005C2.72071 9.475 2.71239 9.43027 2.69559 9.38846C2.67879 9.34665 2.65384 9.3086 2.62221 9.27651C2.59057 9.24443 2.55288 9.21895 2.51131 9.20156C2.46974 9.18417 2.42513 9.17521 2.38007 9.17521C2.33501 9.17521 2.29041 9.18417 2.24884 9.20156C2.20727 9.21895 2.16957 9.24443 2.13794 9.27651C2.1063 9.3086 2.08136 9.34665 2.06456 9.38846C2.04776 9.43027 2.03944 9.475 2.04007 9.52005V11.9001C2.04007 12.6471 2.65298 13.2601 3.40007 13.2601C4.14717 13.2601 4.76007 12.6471 4.76007 11.9001V8.84005C4.76007 8.46039 5.06041 8.16005 5.44007 8.16005C5.81974 8.16005 6.12007 8.46039 6.12007 8.84005V13.6001C6.12007 14.3471 6.73298 14.9601 7.48007 14.9601H7.82007V15.6401H5.78007C5.73502 15.6394 5.69029 15.6477 5.64848 15.6645C5.60667 15.6813 5.56862 15.7063 5.53653 15.7379C5.50444 15.7696 5.47897 15.8073 5.46158 15.8488C5.44419 15.8904 5.43523 15.935 5.43523 15.9801C5.43523 16.0251 5.44419 16.0697 5.46158 16.1113C5.47897 16.1529 5.50444 16.1906 5.53653 16.2222C5.56862 16.2538 5.60667 16.2788 5.64848 16.2956C5.69029 16.3124 5.73502 16.3207 5.78007 16.3201H8.16007H12.2401H14.6201C14.6651 16.3207 14.7099 16.3124 14.7517 16.2956C14.7935 16.2788 14.8315 16.2538 14.8636 16.2222C14.8957 16.1906 14.9212 16.1529 14.9386 16.1113C14.956 16.0697 14.9649 16.0251 14.9649 15.9801C14.9649 15.935 14.956 15.8904 14.9386 15.8488C14.9212 15.8073 14.8957 15.7696 14.8636 15.7379C14.8315 15.7063 14.7935 15.6813 14.7517 15.6645C14.7099 15.6477 14.6651 15.6394 14.6201 15.6401H12.5801V13.6001C12.5801 13.5099 12.5442 13.4234 12.4805 13.3596C12.4167 13.2959 12.3302 13.2601 12.2401 13.2601H11.9001V5.10005C11.9001 4.72841 11.5917 4.42005 11.2201 4.42005H10.5401V1.70005H11.5601C11.5601 1.88807 11.7124 2.04005 11.9001 2.04005H14.2801C14.4678 2.04005 14.6201 1.88807 14.6201 1.70005V1.02005C14.6201 0.832034 14.4678 0.680054 14.2801 0.680054H11.9001C11.7124 0.680054 11.5601 0.832034 11.5601 1.02005H10.2572C10.2366 1.01659 10.2157 1.01503 10.1948 1.01541C10.1785 1.01579 10.1623 1.01735 10.1463 1.02005H8.84007C8.84007 0.832034 8.68775 0.680054 8.50007 0.680054H6.12007ZM9.18007 5.10005H10.143C10.1797 5.10612 10.2171 5.10612 10.2539 5.10005H11.2201V13.2601H9.18007V5.10005ZM8.50007 13.9401H8.84007H11.5601H11.9001V15.6401H8.50007V13.9401Z" fill="white"/>
</svg>
