<svg width="17" height="17" viewBox="0 0 17 17" fill="none" xmlns="http://www.w3.org/2000/svg">
<path d="M7.13984 2.04004C3.30724 2.04004 0.339844 4.7757 0.339844 7.48004C0.339844 8.19875 0.688987 8.8122 1.19781 9.2232C1.70664 9.63421 2.37264 9.86004 3.05984 9.86004C3.37571 9.86004 3.69729 9.80026 4.02008 9.7166L6.11984 12.9825V15.64C6.11985 15.7302 6.15568 15.8167 6.21944 15.8804C6.2832 15.9442 6.36967 15.98 6.45984 15.98H7.81984C7.91001 15.98 7.99649 15.9442 8.06025 15.8804C8.12401 15.8167 8.15983 15.7302 8.15984 15.64V12.9825L10.3393 9.59242C10.9012 9.74231 11.4399 9.86004 11.8998 9.86004C12.587 9.86004 13.6944 9.64953 14.6876 9.27699C15.1842 9.09072 15.6481 8.8655 16.0104 8.58305C16.3727 8.3006 16.6598 7.93392 16.6598 7.48004C16.6598 6.74093 16.2556 6.04446 15.6458 5.4148C15.0361 4.78515 14.2061 4.20914 13.2645 3.71215C11.3813 2.71817 9.05615 2.04004 7.13984 2.04004ZM7.13984 2.72004V3.12512C7.13984 3.63971 7.5312 4.07566 8.04031 4.13582C8.4196 4.18065 8.80665 4.25151 9.19379 4.34367C9.69586 4.46312 10.2157 4.18417 10.3898 3.69688L10.5259 3.31504C10.7876 3.39767 11.0474 3.48717 11.3048 3.58398L11.174 3.88945C10.957 4.39549 11.1898 4.98756 11.6867 5.21758C11.9996 5.36258 12.2982 5.51542 12.5772 5.6718C13.0228 5.92158 13.5942 5.80185 13.8987 5.38891L14.151 5.04691C14.5379 5.31894 14.8801 5.60158 15.1571 5.88762C15.6954 6.44349 15.9798 6.99634 15.9798 7.48004C15.9798 7.55311 15.9529 7.63458 15.8995 7.72176C15.308 7.5322 11.7695 6.46004 6.79984 6.46004C4.88523 6.46004 2.61088 6.61794 1.02117 7.45945C1.02945 6.34398 1.71754 5.13329 2.85266 4.21352L3.0957 4.52297C3.40894 4.92265 3.97028 5.01856 4.40523 4.77797C4.77808 4.57158 5.19197 4.40086 5.63641 4.27992C6.11638 4.14966 6.44719 3.68754 6.39277 3.18555L6.34762 2.76918C6.60664 2.7399 6.86944 2.72004 7.13984 2.72004ZM7.81984 2.74992C8.47059 2.80466 9.16893 2.93681 9.87246 3.12379L9.74961 3.46777C9.69047 3.63328 9.52366 3.7233 9.35117 3.68227C8.94135 3.58471 8.52883 3.50879 8.12 3.46047C7.94435 3.43971 7.81984 3.30072 7.81984 3.12512V2.74992ZM5.67559 2.87941L5.71676 3.25859C5.7351 3.42776 5.6299 3.57663 5.45844 3.62316C4.96063 3.75857 4.4964 3.95018 4.07586 4.18297C3.91582 4.2715 3.73658 4.23808 3.63094 4.10328L3.40516 3.81574C4.06187 3.39028 4.82805 3.06053 5.67559 2.87941ZM11.9357 3.83832C12.2833 3.98728 12.6246 4.14357 12.9471 4.31379C13.1664 4.42955 13.3779 4.55007 13.5813 4.67371L13.3515 4.98582C13.2473 5.12707 13.0648 5.16561 12.9099 5.07879C12.615 4.91352 12.3006 4.75282 11.9722 4.60066C11.7993 4.5206 11.7249 4.32967 11.7989 4.15707L11.9357 3.83832ZM6.79984 7.14004C10.8843 7.14004 14.0281 7.89295 15.2879 8.2477C15.0472 8.38927 14.7601 8.52354 14.4492 8.64016C13.5381 8.98188 12.4356 9.18004 11.8998 9.18004C11.3829 9.18004 10.4984 8.93832 9.61414 8.68332C8.72989 8.42832 7.84586 8.16004 7.13984 8.16004C6.43383 8.16004 5.69988 8.43496 4.98562 8.68996C4.27137 8.94496 3.57681 9.18004 3.05984 9.18004C2.52407 9.18004 2.00023 8.9972 1.6248 8.69395C1.43489 8.54054 1.28231 8.36089 1.17789 8.15539C2.54824 7.37192 4.85507 7.14004 6.79984 7.14004ZM7.13984 8.84004C7.43388 8.84004 7.8524 8.92224 8.31656 9.0366L7.16441 10.88H7.11527L5.98504 9.0718C6.41294 8.93868 6.81367 8.84004 7.13984 8.84004ZM9.00453 9.21789C9.14462 9.2571 9.28396 9.29593 9.42555 9.33676C9.5016 9.35869 9.57672 9.37989 9.65266 9.40184L8.15984 11.7241V11.22C8.15979 11.1527 8.13975 11.0869 8.10228 11.031C8.0648 10.9751 8.01157 10.9316 7.94934 10.9059L9.00453 9.21789ZM5.3223 9.29293L6.33035 10.9059C6.26811 10.9316 6.21489 10.9751 6.17741 11.031C6.13994 11.0869 6.1199 11.1527 6.11984 11.22V11.7241L4.69809 9.51273C4.87077 9.45342 5.04298 9.3912 5.21406 9.33012C5.25054 9.3171 5.28595 9.30582 5.3223 9.29293ZM6.79984 11.56H7.47984V12.58H6.79984V11.56ZM6.79984 13.26H7.47984V15.3H6.79984V13.26Z" fill="white"/>
</svg>
