<svg width="20" height="20" viewBox="0 0 20 20" fill="none" xmlns="http://www.w3.org/2000/svg">
<path d="M5.60293 2.78479C4.04873 2.78479 2.78457 4.04895 2.78457 5.60315C2.78457 7.15715 4.04873 8.4219 5.60293 8.4219C7.15713 8.4219 8.42168 7.15735 8.42168 5.60315C8.42168 4.04895 7.15713 2.78479 5.60293 2.78479ZM5.60293 3.23557C6.90833 3.23557 7.9705 4.29755 7.9705 5.60315C7.9705 6.90875 6.90833 7.97073 5.60293 7.97073C4.29753 7.97073 3.23535 6.90875 3.23535 5.60315C3.23535 4.29755 4.29733 3.23557 5.60293 3.23557ZM5.37715 3.6676L5.06972 3.78792C4.50332 4.00972 4.13691 4.54517 4.13691 5.15237C4.13711 5.70657 4.44236 6.20099 4.92636 6.45159V7.29456H5.37754V7.06917V6.15276L5.23418 6.09651C4.84178 5.94311 4.58808 5.57257 4.58808 5.15237C4.58808 4.85597 4.71436 4.58393 4.92636 4.39573V5.26487H6.2791V4.39573C6.4911 4.58393 6.61738 4.85597 6.61738 5.15237C6.61738 5.57257 6.36388 5.94311 5.97168 6.09651L5.82832 6.15276V7.06917V7.29456H6.2791V6.45159C6.7633 6.20099 7.06855 5.70657 7.06855 5.15237C7.06855 4.54517 6.70234 4.00972 6.13574 3.78792L5.82832 3.6676V4.8137H5.37715V3.6676ZM15.4725 4.3637C15.2206 4.36192 14.9763 4.44412 14.7768 4.60237C14.7238 4.64437 14.6766 4.69144 14.633 4.74104C14.448 4.84984 14.1898 4.83031 14.0322 4.67971C13.9744 4.62451 13.9111 4.57772 13.8443 4.53752C13.8439 4.53732 13.8436 4.53694 13.8432 4.53674C13.8424 4.53634 13.8414 4.53617 13.8408 4.53557C13.802 4.51237 13.7623 4.49069 13.7213 4.47229C13.7155 4.46989 13.7101 4.46688 13.7045 4.46448C13.6695 4.44928 13.6331 4.43721 13.5967 4.42581C13.5851 4.42221 13.5737 4.41729 13.5619 4.41409C13.5333 4.40609 13.504 4.40133 13.4748 4.39573C13.331 4.36853 13.1832 4.37002 13.04 4.40042C13.0266 4.40322 13.0132 4.40425 12.9998 4.40745C12.9976 4.40805 12.9956 4.40939 12.9932 4.40979C12.9662 4.41659 12.9401 4.42618 12.9139 4.43518C12.8909 4.44298 12.8679 4.44961 12.8455 4.45901C12.8311 4.46501 12.8175 4.47272 12.8033 4.47932C12.7705 4.49492 12.7377 4.51012 12.7061 4.52932L12.7037 4.53049C12.6987 4.53349 12.6943 4.53745 12.6893 4.54065C12.5571 4.62285 12.4442 4.73255 12.3572 4.86135C12.3414 4.88495 12.3249 4.90804 12.3107 4.93284C12.3047 4.94324 12.3003 4.95427 12.2947 4.96487C12.2769 4.99887 12.2597 5.03375 12.2455 5.06995C12.2433 5.07515 12.2416 5.08037 12.2396 5.08557C12.223 5.12877 12.21 5.17299 12.1986 5.21799V5.21877L12.1982 5.21917C12.1792 5.29517 12.1672 5.37334 12.1654 5.45354C12.1626 5.57994 12.1105 5.69983 12.0189 5.79143C11.9385 5.87183 11.836 5.91965 11.7268 5.93245C11.5258 5.92985 11.324 5.98151 11.1478 6.08831C11.081 6.12891 11.0208 6.17713 10.965 6.22893C10.9538 6.23933 10.9417 6.24919 10.9311 6.25979C10.9205 6.27039 10.9112 6.28238 10.901 6.29338C10.849 6.34938 10.8009 6.40978 10.7603 6.47698C10.6533 6.65338 10.6015 6.85566 10.6045 7.05706C10.5915 7.16626 10.5439 7.26884 10.4635 7.34924C10.3831 7.42964 10.2805 7.47766 10.1713 7.49026C9.97029 7.48766 9.76858 7.53932 9.59238 7.64612C9.52478 7.68732 9.46421 7.73571 9.40801 7.78831C9.39741 7.79811 9.38597 7.80701 9.37597 7.81721C9.36457 7.82861 9.35416 7.84154 9.34316 7.85354C9.29216 7.90894 9.24469 7.96859 9.20449 8.03479C9.09749 8.21119 9.04642 8.41288 9.04902 8.61448C9.03622 8.72368 8.9884 8.82647 8.908 8.90667L8.90058 8.91487C8.82158 8.99087 8.72181 9.03567 8.61621 9.04807C8.41501 9.04527 8.21291 9.09693 8.03691 9.20393C7.96991 9.24453 7.90971 9.29276 7.85371 9.34456C7.84251 9.35496 7.83052 9.36482 7.81972 9.37542C7.80912 9.38602 7.79945 9.39801 7.78925 9.40901C7.73726 9.46501 7.68943 9.52501 7.64863 9.59221C7.54163 9.76861 7.49036 9.97089 7.49316 10.1723C7.48016 10.2817 7.43255 10.3843 7.35215 10.4649C7.27175 10.5455 7.16878 10.5929 7.05918 10.6055C6.85838 10.6029 6.65685 10.6547 6.48105 10.7617C6.41425 10.8023 6.35404 10.8504 6.29824 10.902C6.28684 10.9124 6.27466 10.9214 6.26386 10.9324C6.25286 10.9432 6.24321 10.9562 6.23261 10.9676C6.18101 11.0232 6.13337 11.0828 6.09277 11.1496C5.98577 11.3262 5.9343 11.5289 5.9373 11.7305C5.9243 11.8397 5.87669 11.9419 5.79629 12.0223C5.70469 12.1139 5.58498 12.166 5.45918 12.1688C5.16858 12.1754 4.89825 12.2968 4.69785 12.5016C4.46985 12.714 4.34086 13.0083 4.34746 13.3301C4.34926 13.4189 4.3059 13.5142 4.2291 13.5914L4.18769 13.6328C4.10109 13.7196 3.99338 13.7696 3.90058 13.7656C3.47798 13.7616 3.12117 13.9789 2.91777 14.3469C2.73717 14.6737 2.73904 15.0782 2.92324 15.4028C3.10004 15.7142 3.39991 15.9192 3.74551 15.966C3.79611 15.9728 3.84668 15.9766 3.89668 15.9766C4.18808 15.9766 4.46597 15.8622 4.67597 15.652C4.88457 15.4432 4.99829 15.164 4.99629 14.8672C4.99569 14.7666 5.04662 14.6575 5.14902 14.5551C5.23782 14.4661 5.34551 14.4153 5.44511 14.4153H5.44707C5.74527 14.4175 6.02264 14.3036 6.23144 14.0946C6.23744 14.0886 6.24224 14.0816 6.24824 14.0754C6.25564 14.0684 6.2637 14.0623 6.2709 14.0551C6.4681 13.8577 6.58162 13.5947 6.59082 13.3145C6.59542 13.1789 6.64769 13.0543 6.73769 12.9645C6.82249 12.8795 6.93748 12.8303 7.06308 12.8207C7.27948 12.8175 7.48783 12.7517 7.66543 12.6305C7.67343 12.6249 7.68125 12.6185 7.68925 12.6129C7.70926 12.5985 7.72924 12.5844 7.74824 12.5688C7.77524 12.5464 7.80156 12.5225 7.82675 12.4973C7.85396 12.4701 7.87893 12.4415 7.90293 12.4121C7.91333 12.3993 7.92301 12.3855 7.93261 12.3723C7.94481 12.3559 7.95657 12.3397 7.96777 12.3227C7.97957 12.3045 7.99095 12.286 8.00175 12.2672C8.00836 12.256 8.01451 12.2446 8.0205 12.2332C8.03311 12.2094 8.04525 12.1852 8.05605 12.1606C8.05725 12.1578 8.05837 12.1552 8.05957 12.1524C8.11617 12.021 8.14701 11.8798 8.14941 11.7344C8.15881 11.6078 8.20855 11.4919 8.29355 11.4067C8.37815 11.3221 8.49314 11.2723 8.61894 11.2629C8.83554 11.2595 9.04427 11.1935 9.22207 11.0719C9.22747 11.0683 9.23249 11.0644 9.23769 11.0606C9.26029 11.0448 9.2827 11.0282 9.3041 11.0106C9.3313 10.9882 9.35722 10.9647 9.38222 10.9395C9.38402 10.9377 9.38589 10.9354 9.38769 10.9336C9.41269 10.9082 9.4362 10.8817 9.4584 10.8543C9.469 10.8413 9.47867 10.8275 9.48847 10.8141C9.50067 10.7979 9.51204 10.7813 9.52324 10.7645C9.53504 10.7465 9.54642 10.728 9.55722 10.7094C9.56382 10.6978 9.56996 10.6862 9.57636 10.6746C9.58876 10.651 9.60092 10.6275 9.61152 10.6031C9.61312 10.5997 9.61422 10.596 9.61582 10.5926C9.67182 10.462 9.70287 10.3218 9.70527 10.1774C9.71427 10.0506 9.76401 9.93425 9.84941 9.84885C9.93341 9.76485 10.0473 9.7153 10.1717 9.7051C10.3893 9.7023 10.5989 9.63628 10.7775 9.51448C10.7849 9.50948 10.7918 9.50366 10.799 9.49846C10.8196 9.48366 10.8404 9.46896 10.86 9.45276C10.887 9.43036 10.9131 9.40687 10.9381 9.38167C10.9653 9.35447 10.9906 9.32552 11.0146 9.29612C11.0246 9.28372 11.0338 9.27044 11.0432 9.25784C11.0556 9.24104 11.0681 9.22407 11.0795 9.20667C11.0911 9.18887 11.1021 9.17077 11.1127 9.15237C11.1195 9.14057 11.1258 9.12863 11.1322 9.11643C11.1444 9.09323 11.1564 9.06973 11.167 9.04573C11.1686 9.04193 11.1699 9.0382 11.1717 9.0344C11.2275 8.9038 11.2587 8.76357 11.2611 8.61917C11.2703 8.49257 11.3201 8.37644 11.4049 8.29104C11.4891 8.20684 11.6026 8.15749 11.7268 8.14729C11.9446 8.14469 12.1542 8.07847 12.333 7.95627C12.3402 7.95127 12.3473 7.94585 12.3545 7.94065C12.3751 7.92585 12.3956 7.91115 12.4154 7.89495C12.4424 7.87255 12.4689 7.84866 12.4939 7.82346C12.5211 7.79626 12.5461 7.76732 12.5701 7.73792C12.5801 7.72552 12.5892 7.71262 12.5986 7.70002C12.6112 7.68302 12.6237 7.66586 12.6353 7.64846C12.6469 7.63066 12.6576 7.61276 12.6682 7.59456C12.675 7.58276 12.6817 7.57062 12.6881 7.55862C12.7003 7.53542 12.7121 7.51192 12.7225 7.48792C12.7241 7.48412 12.7255 7.48078 12.7271 7.47698C12.7831 7.34658 12.814 7.20594 12.8166 7.06174C12.8256 6.93494 12.8753 6.81864 12.9607 6.73284C13.0509 6.64284 13.175 6.59095 13.31 6.58635C13.314 6.58635 13.3175 6.58577 13.3213 6.58557C13.3497 6.58437 13.3782 6.58194 13.4064 6.57854C13.4136 6.57774 13.4211 6.57681 13.4283 6.57581C13.4543 6.57201 13.4801 6.56753 13.5057 6.56213C13.5155 6.55993 13.5254 6.5573 13.535 6.5551C13.5574 6.5497 13.5798 6.54354 13.6018 6.53674C13.6148 6.53254 13.6274 6.52806 13.6404 6.52346C13.6584 6.51726 13.6763 6.51055 13.6939 6.50315C13.7103 6.49635 13.7266 6.48887 13.7428 6.48127C13.7564 6.47487 13.7698 6.46854 13.783 6.46174C13.8024 6.45154 13.8212 6.44033 13.84 6.42893C13.8494 6.42313 13.8592 6.41774 13.8686 6.41174C13.8898 6.39794 13.9105 6.38339 13.9307 6.36799C13.9373 6.36319 13.9436 6.35815 13.9502 6.35315C13.9718 6.33615 13.9925 6.31823 14.0131 6.29963C14.0165 6.29663 14.02 6.29365 14.0232 6.29065C14.2086 6.11705 14.4885 6.10876 14.6857 6.26096C14.7567 6.35256 14.7975 6.46031 14.7975 6.57151C14.7975 6.69931 14.7463 6.82427 14.6541 6.92307C14.6513 6.92607 14.6491 6.92906 14.6463 6.93206C14.6271 6.95326 14.6082 6.97489 14.5908 6.99729C14.5866 7.00269 14.5827 7.0083 14.5787 7.0137C14.5625 7.0353 14.547 7.05692 14.5326 7.07932C14.5274 7.08732 14.5226 7.09573 14.5178 7.10393C14.5056 7.12393 14.4938 7.14407 14.483 7.16487C14.4768 7.17687 14.471 7.18919 14.465 7.20159C14.4568 7.21879 14.449 7.23633 14.4416 7.25393C14.4346 7.27073 14.4285 7.28751 14.4225 7.30471C14.4177 7.31831 14.4128 7.33193 14.4084 7.34573C14.4018 7.36713 14.3958 7.38916 14.3904 7.41096C14.3878 7.42136 14.3852 7.43123 14.383 7.44143C14.3778 7.46643 14.3737 7.492 14.3701 7.5176C14.3689 7.5256 14.3676 7.53343 14.3666 7.54143C14.3634 7.56823 14.3615 7.59528 14.3603 7.62268C14.3601 7.62748 14.3594 7.63252 14.3592 7.63752C14.3548 7.77292 14.3023 7.89712 14.2123 7.98752C14.1271 8.07272 14.0114 8.12247 13.8846 8.13167C13.7436 8.13427 13.6059 8.16419 13.4779 8.21799C13.4703 8.22119 13.4627 8.22397 13.4553 8.22737C13.4339 8.23677 13.4132 8.24762 13.3924 8.25862C13.3776 8.26642 13.363 8.27405 13.3486 8.28245C13.3324 8.29185 13.3164 8.30193 13.3006 8.31213C13.281 8.32493 13.262 8.33856 13.2432 8.35276C13.2322 8.36096 13.2208 8.36896 13.21 8.37776C13.18 8.40196 13.1508 8.42731 13.1232 8.45471C13.1214 8.45651 13.1202 8.45877 13.1182 8.46057C13.0932 8.48597 13.0697 8.51267 13.0475 8.53987C13.0365 8.55347 13.0264 8.56767 13.0162 8.58167C13.0048 8.59707 12.9936 8.61274 12.983 8.62854C12.9706 8.64754 12.959 8.66675 12.9478 8.68635C12.9418 8.69675 12.9363 8.70739 12.9307 8.71799C12.9177 8.74259 12.9049 8.76739 12.8939 8.79299C12.8931 8.79479 12.8924 8.79646 12.8916 8.79846C12.8346 8.93026 12.8032 9.07218 12.801 9.21838C12.7916 9.34458 12.742 9.46053 12.6572 9.54573C12.5712 9.63173 12.4544 9.68147 12.3264 9.68987C12.1846 9.69287 12.0464 9.72335 11.9178 9.77815C11.9126 9.78035 11.9073 9.78239 11.9021 9.78479C11.8787 9.79499 11.856 9.80638 11.8334 9.81838C11.821 9.82498 11.8087 9.8317 11.7967 9.8387C11.7783 9.8493 11.7602 9.8601 11.7424 9.8719C11.7258 9.8829 11.7096 9.89487 11.6936 9.90667C11.68 9.91687 11.6661 9.92653 11.6529 9.93713C11.6257 9.95933 11.5994 9.98265 11.574 10.0074C11.572 10.0094 11.5698 10.0113 11.5678 10.0133C11.5406 10.0409 11.5152 10.0694 11.4912 10.0992C11.4816 10.111 11.4729 10.1238 11.4639 10.136C11.4509 10.1534 11.4384 10.1707 11.4264 10.1887C11.415 10.2061 11.4043 10.2242 11.3939 10.2422C11.3869 10.2544 11.3802 10.2663 11.3736 10.2785C11.3614 10.3015 11.3499 10.3251 11.3393 10.3489C11.3377 10.3527 11.3362 10.3568 11.3346 10.3606C11.2788 10.491 11.2479 10.631 11.2455 10.775C11.2363 10.902 11.1866 11.0181 11.1014 11.1035C11.0174 11.1875 10.9035 11.2369 10.7791 11.2473C10.6007 11.2491 10.428 11.2951 10.2728 11.3785C10.2632 11.3837 10.2537 11.3888 10.2443 11.3942C10.2245 11.4056 10.2049 11.4175 10.1857 11.4301C10.1693 11.4409 10.1535 11.4527 10.1377 11.4645C10.1243 11.4745 10.1107 11.484 10.0975 11.4946C10.0681 11.5186 10.0395 11.5437 10.0123 11.5711C9.9851 11.5983 9.95974 11.6271 9.93574 11.6567C9.92554 11.6691 9.91643 11.6821 9.90683 11.6949C9.89443 11.7117 9.8823 11.7283 9.8709 11.7457C9.8593 11.7635 9.84829 11.7816 9.83769 11.8C9.83089 11.8118 9.82436 11.824 9.81816 11.836C9.80596 11.8592 9.79419 11.8825 9.78379 11.9067C9.78219 11.9105 9.7807 11.9142 9.7791 11.918C9.7231 12.0486 9.69205 12.1892 9.68965 12.3336C9.68045 12.4604 9.6309 12.5762 9.5459 12.6614C9.4679 12.7394 9.36398 12.7866 9.25058 12.8016C9.16198 12.801 9.0724 12.8103 8.9834 12.8309C8.8526 12.8613 8.73145 12.9182 8.62285 12.9922C8.61985 12.9942 8.61647 12.9963 8.61347 12.9985C8.59127 13.0135 8.57002 13.0299 8.54902 13.0469C8.53022 13.0621 8.51193 13.078 8.49433 13.0946C8.48313 13.1046 8.47193 13.114 8.46113 13.1246C8.45973 13.1258 8.45823 13.1271 8.45683 13.1285C8.21683 13.3687 8.10163 13.7007 8.14043 14.0383C8.17083 14.3033 8.29585 14.5431 8.48965 14.7231C8.54765 14.8057 8.58027 14.9046 8.58027 15.0094C8.58027 15.1022 8.55499 15.1902 8.50879 15.2668C8.45879 15.3106 8.41114 15.3578 8.36894 15.411C8.15754 15.6772 8.08117 16.0239 8.15957 16.3617C8.20657 16.5645 8.31242 16.7461 8.45722 16.8887C8.59962 17.0333 8.781 17.1394 8.9834 17.1864C9.0704 17.2066 9.15812 17.2168 9.24472 17.2168C9.49372 17.2168 9.73482 17.1347 9.93222 16.9781C9.98502 16.9361 10.032 16.8889 10.0756 16.8391C10.2608 16.7303 10.5192 16.7504 10.6764 16.9008C10.7342 16.9562 10.798 17.0026 10.865 17.043C10.8654 17.0432 10.8658 17.0438 10.8658 17.0438C10.8662 17.0442 10.8668 17.0442 10.8674 17.0446C10.9072 17.0682 10.9473 17.0902 10.9893 17.109C10.9949 17.1114 11.0001 17.114 11.0057 17.1164C11.0417 17.132 11.0786 17.1445 11.1158 17.1559C11.127 17.1593 11.1376 17.1638 11.149 17.1668C11.1778 17.1748 11.2073 17.1794 11.2365 17.1848C11.3041 17.1976 11.372 17.2063 11.4404 17.2063C11.452 17.2063 11.4636 17.2045 11.4752 17.2039C11.5052 17.2031 11.5354 17.2015 11.5658 17.1981C11.567 17.1979 11.5683 17.1977 11.5693 17.1977C11.6049 17.1935 11.6404 17.1861 11.676 17.1785C11.6872 17.1761 11.6984 17.1753 11.7096 17.1727C11.7118 17.1721 11.7134 17.1711 11.7158 17.1707C11.7454 17.1633 11.7739 17.1528 11.8025 17.143C11.8229 17.1358 11.8435 17.1299 11.8635 17.1215C11.8797 17.1147 11.8949 17.1059 11.9107 17.0985C11.9419 17.0837 11.9733 17.069 12.0033 17.0508C12.0039 17.0504 12.0047 17.0502 12.0053 17.0496C12.0093 17.0472 12.0126 17.0438 12.0166 17.0414C12.1506 16.9586 12.2651 16.8478 12.3529 16.7172C12.3683 16.694 12.3846 16.6715 12.3982 16.6473C12.4042 16.6369 12.4087 16.626 12.4143 16.6156C12.4323 16.5812 12.4497 16.5466 12.4639 16.5102C12.4659 16.5054 12.4669 16.5005 12.4689 16.4957C12.5137 16.3793 12.5408 16.2556 12.5436 16.127C12.5464 16.0006 12.5982 15.8805 12.69 15.7887C12.7706 15.7081 12.8738 15.6603 12.9834 15.6477C12.9878 15.6477 12.9925 15.6485 12.9971 15.6485C13.1933 15.6485 13.3893 15.5962 13.5611 15.4918C13.6287 15.4506 13.6897 15.402 13.7459 15.3496C13.7565 15.3398 13.7679 15.3309 13.7779 15.3207C13.7895 15.3091 13.7997 15.2964 13.8107 15.2844C13.8617 15.229 13.909 15.1695 13.949 15.1035C14.0562 14.9269 14.1075 14.7245 14.1045 14.5227C14.1177 14.4137 14.1653 14.3111 14.2455 14.2309C14.3263 14.1501 14.4297 14.1021 14.5393 14.0895C14.5439 14.0895 14.5481 14.0903 14.5525 14.0903C14.7487 14.0903 14.945 14.0384 15.117 13.934C15.1838 13.8934 15.244 13.8452 15.2998 13.7934C15.311 13.783 15.3232 13.7733 15.3338 13.7625C15.3446 13.7519 15.3541 13.7397 15.3643 13.7285C15.4161 13.6725 15.4641 13.6123 15.5049 13.5453C15.6117 13.3689 15.6629 13.1669 15.6603 12.9653C15.6731 12.8559 15.7212 12.7531 15.8014 12.6727L15.8064 12.668C15.897 12.5794 16.0147 12.5292 16.1385 12.5266C16.5165 12.518 16.8615 12.3163 17.0607 11.9875C17.2705 11.6393 17.2679 11.1919 17.0533 10.8469C16.8701 10.5525 16.5718 10.3615 16.2342 10.3227C15.8974 10.2849 15.5658 10.3993 15.326 10.6399C15.129 10.8373 15.0153 11.1001 15.0061 11.3801C15.0015 11.5155 14.9498 11.6397 14.8596 11.7301C14.7744 11.8153 14.6584 11.865 14.5318 11.8742C14.3886 11.8768 14.2495 11.9077 14.1201 11.9629C14.1149 11.9651 14.1097 11.9668 14.1045 11.9692C14.0813 11.9794 14.0589 11.991 14.0365 12.0028C14.0237 12.0096 14.0108 12.0163 13.9982 12.0235C13.9804 12.0339 13.9629 12.0445 13.9459 12.0559C13.9279 12.0677 13.9106 12.0802 13.8932 12.093C13.8808 12.1022 13.8681 12.1109 13.8561 12.1207C13.8267 12.1447 13.7979 12.1701 13.7705 12.1973C13.7433 12.2247 13.7179 12.2534 13.6939 12.2828C13.6841 12.295 13.6752 12.3081 13.6658 12.3207C13.6532 12.3379 13.6409 12.3551 13.6291 12.3727C13.6175 12.3901 13.6067 12.408 13.5963 12.4262C13.5893 12.4382 13.5828 12.4501 13.5764 12.4625C13.5642 12.4855 13.5522 12.5092 13.5416 12.5332C13.54 12.5368 13.5387 12.5408 13.5373 12.5446C13.4813 12.675 13.4502 12.8154 13.4478 12.9598C13.4388 13.0866 13.3889 13.2025 13.3037 13.2879C13.2199 13.3717 13.1066 13.4209 12.983 13.4313C12.8032 13.4327 12.6294 13.4793 12.4736 13.5637C12.465 13.5683 12.4564 13.573 12.4478 13.5778C12.4274 13.5894 12.4073 13.6019 12.3877 13.6149C12.3715 13.6257 12.3558 13.6371 12.34 13.6489C12.3266 13.6587 12.3128 13.6683 12.2998 13.6789C12.2704 13.7029 12.2418 13.7279 12.2146 13.7551C12.1872 13.7825 12.1619 13.8114 12.1381 13.841C12.1285 13.8528 12.1197 13.8656 12.1107 13.8778C12.0977 13.8952 12.0848 13.9127 12.0728 13.9309C12.0616 13.9481 12.0508 13.9656 12.0404 13.9832C12.0332 13.9956 12.0267 14.0081 12.0201 14.0207C12.0081 14.0435 11.9961 14.0667 11.9857 14.0903C11.9839 14.0943 11.9825 14.0988 11.9807 14.1028C11.9247 14.2334 11.894 14.3736 11.8916 14.518C11.8824 14.6444 11.8328 14.7605 11.7478 14.8457C11.6578 14.9357 11.5336 14.988 11.3986 14.9926C11.3948 14.9926 11.3911 14.9934 11.3873 14.9934C11.3587 14.9946 11.3303 14.9966 11.3021 15C11.2947 15.001 11.2877 15.0019 11.2803 15.0031C11.2545 15.0067 11.2287 15.0112 11.2033 15.0168C11.1931 15.019 11.1827 15.0216 11.1725 15.0242C11.1507 15.0294 11.129 15.0352 11.1076 15.0418C11.0936 15.0462 11.0798 15.0509 11.0662 15.0559C11.0492 15.0619 11.0322 15.0686 11.0154 15.0754C10.9978 15.0826 10.9809 15.0905 10.9635 15.0989C10.9511 15.1047 10.9388 15.1104 10.9268 15.1168C10.9062 15.1276 10.8862 15.1394 10.8662 15.1516C10.8578 15.1566 10.849 15.1616 10.8408 15.1668C10.8188 15.181 10.7976 15.1963 10.7764 15.2121C10.7704 15.2165 10.7648 15.2212 10.7588 15.2258C10.7368 15.243 10.7155 15.2611 10.6947 15.2801C10.6915 15.2831 10.6878 15.2857 10.6846 15.2887C10.499 15.4621 10.2193 15.4706 10.0225 15.3184C9.95126 15.2268 9.91074 15.1186 9.91074 15.0074C9.91074 14.88 9.9617 14.7553 10.0541 14.6563C10.2453 14.4517 10.351 14.1853 10.351 13.9063C10.351 13.8937 10.349 13.8814 10.3486 13.8688C10.3658 13.7692 10.4129 13.6758 10.4869 13.6016C10.5677 13.521 10.6707 13.4732 10.7803 13.4606C10.7849 13.4608 10.7892 13.4617 10.7936 13.4617C10.9898 13.4617 11.186 13.4095 11.358 13.3051C11.4244 13.2647 11.4842 13.2169 11.5396 13.1653C11.5512 13.1545 11.5636 13.1448 11.5748 13.1336C11.5852 13.1232 11.5945 13.1116 11.6045 13.1008C11.6567 13.0448 11.7051 12.9838 11.7459 12.9164C11.8529 12.7398 11.9044 12.538 11.9014 12.3364C11.9144 12.2272 11.9624 12.1248 12.0428 12.0442C12.1234 11.9636 12.2263 11.9157 12.3361 11.9031C12.3405 11.9031 12.3446 11.9039 12.349 11.9039C12.5452 11.9039 12.7415 11.8517 12.9135 11.7473H12.9139C12.9815 11.7063 13.042 11.6575 13.0982 11.6051C13.1088 11.5955 13.1203 11.5864 13.1303 11.5762C13.1417 11.565 13.1515 11.5521 13.1623 11.5403C13.2135 11.4849 13.2616 11.4252 13.3018 11.3586C13.4088 11.1822 13.46 10.9799 13.4572 10.7785C13.4702 10.6691 13.518 10.5666 13.5982 10.486C13.6792 10.405 13.7826 10.3571 13.8928 10.3449C13.8968 10.3449 13.9009 10.3457 13.9049 10.3457C14.1011 10.3457 14.2975 10.2935 14.4693 10.1891C14.5345 10.1495 14.593 10.1026 14.6478 10.0524C14.6606 10.0406 14.6743 10.0298 14.6865 10.0176C14.6961 10.0078 14.7047 9.99694 14.7143 9.98674C14.7669 9.93014 14.816 9.8692 14.8572 9.8012C14.9644 9.6246 15.0155 9.42194 15.0127 9.22034C15.0257 9.11114 15.0735 9.00874 15.1537 8.92854C15.2453 8.83694 15.365 8.78486 15.4908 8.78206C15.5708 8.78026 15.6488 8.76805 15.7244 8.74885C15.7248 8.74885 15.7256 8.74885 15.7256 8.74885C15.726 8.74885 15.7264 8.74846 15.7268 8.74846C15.771 8.73726 15.8142 8.72443 15.8564 8.70823C15.8624 8.70603 15.8688 8.70438 15.8748 8.70198C15.9092 8.68838 15.942 8.67151 15.9744 8.65471C15.9868 8.64831 15.9997 8.64296 16.0119 8.63596C16.0331 8.62376 16.0528 8.60972 16.0732 8.59612C16.206 8.50832 16.3189 8.39286 16.4029 8.25706C16.4059 8.25226 16.4097 8.24799 16.4127 8.24299L16.4139 8.24065C16.4319 8.21085 16.4463 8.17946 16.4611 8.14846C16.4687 8.13226 16.478 8.11682 16.485 8.10002C16.4926 8.08142 16.4979 8.06199 16.5045 8.04299C16.5151 8.01259 16.5264 7.9826 16.5342 7.9512C16.5346 7.9498 16.5349 7.9483 16.5353 7.9469C16.5369 7.9403 16.5375 7.93416 16.5389 7.92776C16.5743 7.77516 16.5761 7.61652 16.5455 7.46292C16.5403 7.43692 16.5361 7.41078 16.5291 7.38518C16.5257 7.37298 16.5212 7.36105 16.5174 7.34885C16.506 7.31265 16.4939 7.27643 16.4787 7.24143C16.4767 7.23643 16.4741 7.23159 16.4717 7.22659C16.4211 7.11299 16.3527 7.00669 16.2643 6.91409C16.1771 6.82269 16.1287 6.70072 16.1287 6.57112C16.1287 6.47832 16.1544 6.38991 16.2006 6.31331C16.2504 6.26971 16.2976 6.22256 16.3396 6.16956C16.5512 5.90316 16.6278 5.55638 16.5494 5.21838C16.5022 5.01558 16.3962 4.83403 16.2518 4.69143C16.1094 4.54683 15.928 4.44077 15.7256 4.39377C15.6413 4.37422 15.5564 4.36429 15.4725 4.3637ZM15.4619 4.81409C15.5151 4.81409 15.5692 4.82024 15.6236 4.83284C15.7414 4.86024 15.8486 4.92436 15.933 5.01096C16.0118 5.09176 16.0707 5.19237 16.0975 5.30237C16.1529 5.52897 16.0945 5.7532 15.9381 5.9176C15.9109 5.946 15.8863 5.97644 15.8631 6.00784C15.7917 6.10424 15.7402 6.21293 15.71 6.32893C15.69 6.40553 15.6787 6.48561 15.6783 6.56721C15.6783 6.56861 15.6779 6.57011 15.6779 6.57151C15.6779 6.57951 15.6789 6.58734 15.6791 6.59534C15.6515 6.58974 15.6239 6.58428 15.5955 6.58088C15.5929 6.58048 15.5903 6.57972 15.5877 6.57932C15.5041 6.56952 15.4207 6.56915 15.3389 6.57815C15.3081 6.58135 15.278 6.58758 15.2478 6.59338C15.248 6.58598 15.249 6.57852 15.249 6.57112C15.249 6.56852 15.2486 6.56611 15.2486 6.56331C15.248 6.48111 15.2361 6.4001 15.2143 6.3219C15.1759 6.1823 15.1054 6.0515 15.0068 5.9387C14.9992 5.9299 14.9922 5.92073 14.9842 5.91213C14.8712 5.79093 14.8092 5.63415 14.8092 5.46995C14.8092 5.32655 14.8555 5.19034 14.9389 5.07854C14.9727 5.03314 15.0118 4.99149 15.0572 4.95549C15.1746 4.86229 15.3145 4.81409 15.4619 4.81409ZM13.3353 4.82776C13.4791 4.84102 13.6131 4.90175 13.7213 5.0051C13.8307 5.1097 13.965 5.18172 14.1084 5.22112C14.187 5.24272 14.2682 5.25349 14.3498 5.25549C14.36 5.25589 14.3701 5.25627 14.3803 5.25627C14.3745 5.28587 14.3684 5.31553 14.365 5.34573C14.3606 5.38653 14.358 5.42796 14.358 5.46956C14.358 5.51536 14.3622 5.56049 14.3678 5.60549C14.3716 5.63589 14.3762 5.66632 14.3826 5.69612C14.3798 5.69632 14.3772 5.69573 14.3744 5.69573C14.367 5.69573 14.3595 5.6967 14.3521 5.6969C14.2701 5.6987 14.1893 5.71101 14.1111 5.73401C13.9661 5.77641 13.8308 5.85336 13.7158 5.96096C13.7068 5.96916 13.6965 5.97524 13.6873 5.98284C13.6671 5.99984 13.6474 6.01688 13.6256 6.03088C13.6116 6.04008 13.5962 6.04691 13.5818 6.05471C13.5618 6.06571 13.5421 6.07716 13.5213 6.08596C13.5007 6.09456 13.479 6.10047 13.4576 6.10667C13.4414 6.11147 13.4254 6.11713 13.4088 6.12073C13.383 6.12633 13.3567 6.12848 13.3303 6.13088C13.3117 6.13248 13.2934 6.13596 13.2748 6.13596C13.0742 6.13596 12.8875 6.04572 12.7623 5.88792C12.6349 5.72772 12.5909 5.52595 12.6389 5.31995C12.6631 5.21495 12.7165 5.1181 12.7889 5.0387C12.7901 5.0375 12.7912 5.03618 12.7924 5.03518C12.8162 5.00918 12.8421 4.98511 12.8697 4.96331C12.8855 4.95091 12.9021 4.93993 12.9189 4.92893C12.9263 4.92413 12.933 4.91888 12.9404 4.91448C12.956 4.90528 12.9723 4.89767 12.9885 4.88987C12.9989 4.88487 13.0093 4.87884 13.0201 4.87424C13.0319 4.86944 13.0439 4.86613 13.0561 4.86213C13.0721 4.85653 13.0885 4.85032 13.1049 4.84612C13.1059 4.84592 13.1066 4.84554 13.1076 4.84534C13.1158 4.84334 13.124 4.84264 13.1322 4.84104C13.1512 4.83704 13.1701 4.83289 13.1889 4.83049C13.2383 4.82419 13.2874 4.82334 13.3353 4.82776ZM15.2381 5.24456V5.69573H15.6889V5.24456H15.2381ZM13.0486 5.25588V5.70667H13.4994V5.25588H13.0486ZM12.3549 6.0926C12.3721 6.1186 12.3892 6.14457 12.4088 6.16917C12.4262 6.19097 12.4451 6.21087 12.4639 6.23127C12.4839 6.24987 12.5027 6.26929 12.5209 6.28909C12.5643 6.32969 12.6106 6.36644 12.6592 6.39924C12.6538 6.40424 12.6476 6.40908 12.6424 6.41448C12.6384 6.41848 12.6351 6.42298 12.6311 6.42698C12.5743 6.48598 12.5255 6.55148 12.4861 6.62268C12.4175 6.74608 12.3768 6.88469 12.3666 7.03049C12.3658 7.04309 12.3643 7.05558 12.3639 7.06838C12.3619 7.12938 12.351 7.18874 12.333 7.24534L12.3318 7.24846C12.323 7.27546 12.3128 7.30177 12.3006 7.32737C12.2874 7.35437 12.2727 7.38068 12.2557 7.40588C12.2531 7.40968 12.2504 7.41341 12.2478 7.41721C12.2262 7.44821 12.2024 7.47771 12.1756 7.50471C12.175 7.50531 12.1742 7.50567 12.1736 7.50627C12.1478 7.53187 12.1196 7.55442 12.0904 7.57502C12.0852 7.57882 12.0802 7.58275 12.0748 7.58635C12.0436 7.60715 12.0113 7.62487 11.9775 7.63987C11.9765 7.64047 11.975 7.64064 11.974 7.64104C11.8896 7.67784 11.7983 7.69712 11.7045 7.69612C11.6823 7.69592 11.6599 7.695 11.6377 7.6926C11.4347 7.6692 11.2616 7.55736 11.1498 7.37776C11.0924 7.28536 11.0626 7.17796 11.058 7.06956C11.0526 6.94436 11.0811 6.81758 11.1463 6.71018C11.1705 6.67038 11.1987 6.63498 11.2287 6.60198C11.2361 6.59378 11.243 6.58517 11.2506 6.57737C11.2554 6.57257 11.2604 6.5685 11.2654 6.5637C11.3812 6.4549 11.53 6.39211 11.6932 6.38831C11.7096 6.38791 11.7258 6.38638 11.742 6.38518C11.88 6.37458 12.0126 6.33403 12.1322 6.26643C12.202 6.22703 12.2674 6.17851 12.3264 6.12151C12.3306 6.11751 12.3349 6.11399 12.3389 6.10979C12.3445 6.10419 12.3495 6.0982 12.3549 6.0926ZM11.7115 6.72151L11.3936 7.04143L11.7135 7.35979L12.0314 7.03948L11.7115 6.72151ZM15.4603 7.02229C15.4855 7.02229 15.5109 7.02418 15.5361 7.02698C15.7391 7.05038 15.9118 7.16164 16.0236 7.34104C16.0802 7.43224 16.1108 7.53795 16.1162 7.64495C16.1164 7.64715 16.1166 7.64978 16.1166 7.65198C16.118 7.68678 16.1167 7.72167 16.1127 7.75627C16.1103 7.77667 16.106 7.79662 16.1018 7.81682C16.1 7.82482 16.0991 7.83284 16.0971 7.84104C16.0923 7.85964 16.0855 7.87773 16.0791 7.89573C16.0755 7.90593 16.0728 7.91659 16.0686 7.92659C16.0638 7.93819 16.0575 7.94917 16.0521 7.96057C16.0445 7.97637 16.0373 7.99206 16.0283 8.00706C16.0279 8.00766 16.0277 8.00841 16.0275 8.00901C16.0241 8.01461 16.02 8.01923 16.0166 8.02463C16.0044 8.04343 15.9925 8.06212 15.9791 8.07932C15.8567 8.23592 15.6793 8.32609 15.4811 8.33049C15.3281 8.33409 15.1802 8.37487 15.0482 8.44807C14.9774 8.48747 14.912 8.53697 14.8518 8.59417C14.8464 8.59937 14.8404 8.604 14.835 8.6094C14.8312 8.6132 14.8276 8.61751 14.8236 8.62151C14.7904 8.57251 14.754 8.5266 14.7146 8.4844C14.6944 8.4658 14.675 8.44659 14.6564 8.42659C14.613 8.38639 14.5674 8.34922 14.5186 8.31682C14.5228 8.31302 14.5272 8.3093 14.5314 8.3051C14.5366 8.2999 14.5411 8.2941 14.5463 8.2887C14.6029 8.2293 14.6518 8.16381 14.6908 8.09221C14.7634 7.95961 14.8046 7.80919 14.81 7.65159C14.8104 7.64099 14.8129 7.63094 14.8139 7.62034C14.8161 7.59254 14.8188 7.56472 14.8244 7.53752C14.8278 7.52132 14.8335 7.50567 14.8381 7.48987C14.8445 7.46807 14.8508 7.44642 14.8596 7.42542C14.8684 7.40382 14.8798 7.38391 14.8908 7.36331C14.8984 7.34931 14.9053 7.33433 14.9139 7.32073C14.9289 7.29773 14.9465 7.27669 14.9643 7.25549C14.9757 7.24189 14.9854 7.22708 14.9982 7.21448C15.1222 7.09028 15.2875 7.02229 15.4603 7.02229ZM15.4615 7.35979L15.1412 7.67971L15.4615 7.99768L15.7795 7.67776L15.4615 7.35979ZM10.7947 7.65549C10.8187 7.69089 10.8443 7.72447 10.8717 7.75667C10.9119 7.80387 10.9553 7.84792 11.0021 7.88752C11.0333 7.91392 11.0658 7.93797 11.0994 7.96057C11.095 7.96437 11.0907 7.9677 11.0865 7.9719C11.0827 7.9759 11.0792 7.9804 11.0752 7.9844C11.0184 8.0436 10.9699 8.10929 10.9303 8.18049C10.8619 8.30369 10.8215 8.4429 10.8111 8.5887C10.8103 8.6011 10.8084 8.61321 10.808 8.62581C10.806 8.68681 10.7957 8.74655 10.7775 8.80315C10.7773 8.80355 10.7771 8.80392 10.7771 8.80432C10.7681 8.83192 10.7573 8.85898 10.7447 8.88518C10.7315 8.91218 10.7172 8.9385 10.7002 8.9637C10.6974 8.9679 10.6944 8.97161 10.6916 8.97581C10.6706 9.00581 10.6475 9.03456 10.6213 9.06096C10.6207 9.06156 10.6203 9.06212 10.6197 9.06252C10.5925 9.08972 10.5628 9.11377 10.5318 9.13557C10.5282 9.13797 10.5251 9.14059 10.5217 9.14299C10.4115 9.21719 10.2819 9.25613 10.1475 9.25393C10.1257 9.25353 10.1038 9.25302 10.0818 9.25042C9.87883 9.22742 9.70573 9.11536 9.59433 8.93596C9.53693 8.84376 9.50734 8.73655 9.50254 8.62815C9.49694 8.50255 9.52562 8.37578 9.59082 8.26838C9.61562 8.22758 9.64419 8.19066 9.67519 8.15706C9.68179 8.14986 9.68792 8.14237 9.69472 8.13557C9.70152 8.12857 9.70901 8.12244 9.71621 8.11604C9.83101 8.01064 9.9771 7.95011 10.1373 7.94651C10.1539 7.94611 10.1701 7.94439 10.1865 7.94299C10.3245 7.93259 10.4574 7.89223 10.5768 7.82463C10.6464 7.78503 10.7113 7.73632 10.7705 7.67932C10.7747 7.67532 10.7796 7.6718 10.7838 7.6676C10.7876 7.6638 10.7909 7.65949 10.7947 7.65549ZM10.1576 8.27971L9.83769 8.59768L10.1576 8.91799L10.476 8.59768L10.1576 8.27971ZM13.9041 8.58088C13.9071 8.58088 13.9105 8.58127 13.9135 8.58127C13.9355 8.58167 13.9577 8.58258 13.9799 8.58518C14.1829 8.60818 14.3562 8.71984 14.4678 8.89924C14.5252 8.99144 14.555 9.09885 14.5596 9.20745C14.565 9.33285 14.5365 9.4602 14.4713 9.5676C14.4459 9.6094 14.4164 9.64648 14.3846 9.68088C14.3788 9.68728 14.3734 9.69422 14.3674 9.70042C14.3596 9.70822 14.351 9.71489 14.3428 9.72229C14.2284 9.82609 14.0834 9.88569 13.9244 9.88909C13.9084 9.88949 13.8928 9.8916 13.8768 9.8926C13.7382 9.9028 13.605 9.94296 13.485 10.011C13.4154 10.0504 13.3504 10.0993 13.2912 10.1563C13.287 10.1603 13.2825 10.1638 13.2783 10.168C13.2745 10.1718 13.2712 10.1763 13.2674 10.1801C13.2434 10.1447 13.2174 10.1109 13.19 10.0789C13.1498 10.0317 13.1066 9.98825 13.06 9.94885C13.0286 9.92245 12.9961 9.89802 12.9623 9.87542C12.9673 9.87102 12.9718 9.86712 12.976 9.86292C12.98 9.85892 12.9835 9.85481 12.9873 9.85081C13.0441 9.79181 13.0926 9.72571 13.1322 9.65471C13.2006 9.53131 13.2412 9.3927 13.2514 9.2469C13.2522 9.2345 13.2541 9.22219 13.2545 9.20979C13.2565 9.14859 13.2669 9.08886 13.2853 9.03206C13.2855 9.03146 13.2857 9.0307 13.2857 9.0301C13.2947 9.0025 13.3056 8.97563 13.3182 8.94963C13.3314 8.92263 13.3459 8.89632 13.3627 8.87112C13.3651 8.86752 13.3677 8.86436 13.3701 8.86096C13.3917 8.82976 13.4154 8.79988 13.4424 8.77268C13.4714 8.74368 13.5027 8.71833 13.5357 8.69573C13.5361 8.69553 13.5365 8.69495 13.5365 8.69495C13.6447 8.62075 13.7719 8.58088 13.9041 8.58088ZM13.9053 8.91799L13.5873 9.23557L13.9053 9.55588L14.2232 9.23557L13.9053 8.91799ZM9.23965 9.21409C9.26345 9.24889 9.28882 9.28249 9.31582 9.31409C9.35642 9.36169 9.39987 9.40613 9.44707 9.44573C9.47807 9.47193 9.51073 9.49598 9.54433 9.51838C9.53973 9.52218 9.53525 9.52551 9.53105 9.52971C9.52705 9.53371 9.52372 9.5384 9.51972 9.5426C9.46292 9.6016 9.41381 9.66711 9.37441 9.73831C9.30581 9.86151 9.26547 10.0003 9.25527 10.1461C9.25447 10.1587 9.25294 10.171 9.25254 10.1836C9.25054 10.2446 9.24007 10.3044 9.22207 10.361C9.22167 10.3622 9.22111 10.3633 9.22051 10.3645C9.21171 10.3915 9.20146 10.4176 9.18926 10.443C9.17606 10.47 9.16133 10.4967 9.14433 10.5219C9.14193 10.5257 9.13912 10.529 9.13652 10.5328C9.11492 10.5638 9.09125 10.5935 9.06425 10.6207C9.03685 10.6483 9.00678 10.6722 8.97558 10.6942C8.97258 10.6962 8.9696 10.6984 8.9666 10.7004C8.8558 10.7758 8.72524 10.8153 8.59004 10.8121C8.56884 10.8117 8.54795 10.8108 8.52675 10.8082C8.32375 10.785 8.15026 10.6736 8.03886 10.4942C7.98126 10.4018 7.95128 10.2942 7.94668 10.1856C7.94128 10.0604 7.97015 9.9334 8.03535 9.8262C8.05875 9.7876 8.08546 9.75312 8.11425 9.72112C8.12266 9.71172 8.13065 9.70179 8.13925 9.69299C8.14286 9.68959 8.14698 9.68663 8.15058 9.68323C8.26698 9.57203 8.41683 9.50812 8.58183 9.50432C8.59823 9.50392 8.61446 9.5024 8.63066 9.5012C8.76906 9.4908 8.90188 9.45064 9.02168 9.38284C9.09148 9.34324 9.15643 9.29472 9.21543 9.23752C9.21943 9.23372 9.22373 9.2302 9.22793 9.2262L9.23965 9.21409ZM8.60175 9.83792L8.28183 10.1555L8.60175 10.4758L8.91972 10.1555L8.60175 9.83792ZM12.349 10.1383C12.352 10.1383 12.355 10.1387 12.358 10.1387C12.3802 10.1391 12.4026 10.1402 12.4248 10.143C12.6278 10.1662 12.8011 10.2777 12.9127 10.4571C12.9701 10.5497 12.9999 10.657 13.0045 10.7656C13.0097 10.8908 12.9812 11.0176 12.9162 11.125C12.8912 11.1662 12.8619 11.2029 12.8307 11.2367C12.8245 11.2437 12.8187 11.2512 12.8123 11.2578C12.8071 11.2628 12.8011 11.2673 12.7959 11.2723C12.6801 11.3807 12.5323 11.4433 12.3697 11.4469C12.3529 11.4473 12.3363 11.449 12.3197 11.4504C12.1819 11.4608 12.0493 11.5012 11.9299 11.5688C11.8601 11.6082 11.7951 11.6571 11.7361 11.7141C11.7319 11.7181 11.7274 11.7216 11.7232 11.7258C11.7192 11.7298 11.7159 11.7339 11.7119 11.7379C11.6879 11.7025 11.6622 11.6689 11.635 11.6367C11.5946 11.5895 11.5513 11.5453 11.5045 11.5059C11.4733 11.4797 11.4404 11.4554 11.4068 11.4328C11.4112 11.4286 11.4159 11.4249 11.4201 11.4207C11.4241 11.4167 11.4274 11.4126 11.4314 11.4086C11.4884 11.3496 11.5376 11.2839 11.5768 11.2129C11.6452 11.0895 11.6857 10.9507 11.6959 10.8047C11.6967 10.7923 11.6982 10.7802 11.6986 10.7676C11.7006 10.7066 11.7113 10.6467 11.7295 10.5899L11.7307 10.5871C11.7395 10.5601 11.7501 10.5336 11.7623 10.5078C11.7757 10.4808 11.7898 10.4545 11.8068 10.4293C11.8094 10.4255 11.8122 10.4218 11.815 10.418C11.8364 10.387 11.8603 10.3575 11.8873 10.3305C11.9163 10.3013 11.9479 10.2756 11.9811 10.2528C12.0893 10.1784 12.2168 10.1383 12.349 10.1383ZM12.3494 10.4758L12.0314 10.7938L12.3494 11.1117L12.6678 10.7938L12.3494 10.4758ZM16.1068 10.7672C16.1318 10.7672 16.1572 10.7685 16.1826 10.7715C16.3854 10.7945 16.5589 10.9062 16.6705 11.0856C16.7943 11.2846 16.7954 11.5531 16.674 11.7535C16.553 11.9527 16.3539 12.0694 16.1275 12.0746C15.8847 12.0802 15.6552 12.1793 15.4814 12.3535L15.4701 12.3653L15.4693 12.3656C15.4123 12.4248 15.3646 12.4906 15.3252 12.5602C15.2574 12.6802 15.217 12.8134 15.2068 12.952C15.2056 12.9682 15.2037 12.984 15.2033 13.0004C15.1997 13.1598 15.1397 13.3055 15.0357 13.4203C15.0285 13.4283 15.0222 13.4364 15.0146 13.4442C15.0094 13.4492 15.0034 13.454 14.9982 13.459C14.9632 13.492 14.9248 13.5219 14.8818 13.5481C14.7746 13.6133 14.648 13.642 14.5228 13.6364C14.4148 13.6316 14.3078 13.6018 14.2158 13.5446C14.0366 13.433 13.925 13.2591 13.9018 13.0559C13.8994 13.0341 13.8982 13.0126 13.8978 12.991C13.8954 12.8564 13.9346 12.7264 14.0088 12.616C14.0116 12.612 14.0146 12.6081 14.0174 12.6039C14.0386 12.5739 14.0615 12.545 14.0877 12.5184C14.0883 12.5178 14.0887 12.5172 14.0893 12.5168C14.1181 12.4878 14.1494 12.4621 14.1826 12.4395L14.1834 12.4391C14.2834 12.3711 14.4016 12.3323 14.5256 12.3281C14.538 12.3277 14.5497 12.3262 14.5619 12.3254C14.7077 12.3152 14.8465 12.2749 14.9697 12.2063C15.0407 12.1669 15.1064 12.1182 15.1654 12.0614C15.1696 12.0574 15.1743 12.0536 15.1783 12.0496C15.3495 11.8784 15.448 11.6465 15.4564 11.3961C15.462 11.2305 15.5291 11.0754 15.6451 10.959C15.7691 10.8348 15.934 10.7672 16.1068 10.7672ZM7.683 10.7711C7.70721 10.8065 7.73295 10.8403 7.76035 10.8723C7.80055 10.9193 7.84383 10.963 7.89043 11.0024C7.92183 11.0288 7.95428 11.0536 7.98808 11.0762C7.98388 11.0802 7.979 11.0835 7.9748 11.0879C7.9708 11.0917 7.96786 11.0962 7.96386 11.1004C7.90706 11.1594 7.85834 11.2251 7.81894 11.2961C7.75054 11.4195 7.70961 11.5585 7.69941 11.7043C7.69861 11.7167 7.69688 11.7288 7.69668 11.7414C7.69468 11.8024 7.68421 11.8618 7.66621 11.9184C7.66561 11.9198 7.66505 11.9213 7.66465 11.9227C7.65585 11.9493 7.6456 11.9754 7.6334 12.0004C7.6202 12.0274 7.60566 12.0541 7.58886 12.0793C7.58626 12.0833 7.58307 12.087 7.58027 12.091C7.55887 12.1216 7.5354 12.1511 7.5084 12.1781C7.4808 12.2057 7.45072 12.2296 7.41972 12.2516C7.41672 12.2536 7.41394 12.2558 7.41074 12.2578C7.30014 12.3332 7.17017 12.3729 7.03457 12.3699C7.01337 12.3693 6.9919 12.3682 6.9705 12.3656C6.7677 12.3424 6.59401 12.231 6.48261 12.0516C6.42521 11.9594 6.39542 11.852 6.39082 11.7434C6.38542 11.6182 6.4139 11.4912 6.4791 11.3836C6.5055 11.3402 6.53593 11.3016 6.56933 11.2664C6.57393 11.2614 6.5782 11.2558 6.583 11.2512C6.5916 11.2426 6.60116 11.2354 6.60996 11.2274C6.72416 11.1248 6.86797 11.0659 7.02597 11.0621C7.04217 11.0617 7.05802 11.0598 7.07402 11.0586C7.21262 11.0484 7.34543 11.0081 7.46543 10.9403C7.53503 10.9009 7.60037 10.8521 7.65957 10.7949C7.66377 10.7909 7.66807 10.7874 7.67207 10.7832C7.67607 10.7794 7.67921 10.7751 7.683 10.7711ZM16.1088 11.1028L15.7885 11.4227L16.1088 11.7406L16.4268 11.4207L16.1088 11.1028ZM7.0459 11.3957L6.72597 11.7137L7.0459 12.0317L7.36386 11.7137L7.0459 11.3957ZM10.7932 11.6961C10.7968 11.6961 10.8003 11.6965 10.8037 11.6965C10.8253 11.6969 10.8469 11.698 10.8689 11.7004C11.0717 11.7238 11.2448 11.8355 11.3564 12.0149C11.4138 12.1073 11.444 12.2145 11.4486 12.3231C11.454 12.4483 11.4255 12.5752 11.3603 12.6824C11.3343 12.7252 11.3043 12.7631 11.2717 12.7981C11.2665 12.8037 11.2616 12.8101 11.2564 12.8153C11.2478 12.8239 11.2381 12.8313 11.2291 12.8395C11.1151 12.9415 10.9715 13.0007 10.8139 13.0043C10.7973 13.0047 10.781 13.0064 10.7646 13.0078C10.6266 13.0182 10.4938 13.0586 10.3744 13.1262C10.3048 13.1656 10.2399 13.2143 10.1807 13.2715C10.1765 13.2755 10.1718 13.279 10.1678 13.2832C10.166 13.285 10.1639 13.2873 10.1623 13.2891C10.1483 13.2685 10.1343 13.2479 10.1189 13.2281C10.0649 13.1587 10.0028 13.0947 9.93222 13.0387C9.92942 13.0367 9.92623 13.0348 9.92363 13.0328C9.90203 13.0158 9.87943 13.0006 9.85683 12.9856C9.85923 12.9832 9.86225 12.9811 9.86465 12.9785C9.86865 12.9745 9.87217 12.97 9.87597 12.966C9.93277 12.907 9.9815 12.8413 10.0209 12.7703C10.0893 12.6469 10.1298 12.5079 10.14 12.3621C10.1408 12.3497 10.1426 12.3376 10.1428 12.325C10.1448 12.264 10.1552 12.2043 10.1732 12.1477C10.1736 12.1465 10.174 12.1459 10.1744 12.1449C10.1832 12.1179 10.1939 12.091 10.2061 12.0656C10.2193 12.0386 10.2342 12.0123 10.251 11.9871C10.2536 11.9833 10.256 11.9796 10.2588 11.9758C10.2804 11.945 10.3043 11.9153 10.3311 11.8883C10.3317 11.8879 10.332 11.8873 10.3326 11.8867C10.3608 11.8587 10.3912 11.8337 10.4232 11.8117L10.4256 11.8102C10.5336 11.7362 10.6612 11.6961 10.7932 11.6961ZM10.7939 12.034L10.476 12.352L10.7939 12.6699L11.1139 12.352L10.7939 12.034ZM6.12715 12.3289C6.21035 12.4513 6.31382 12.5544 6.43222 12.634C6.42842 12.6376 6.42392 12.6415 6.41972 12.6457C6.40252 12.6629 6.38611 12.681 6.3705 12.6996C6.31531 12.7642 6.26998 12.8361 6.23418 12.9129C6.17858 13.0319 6.14581 13.1626 6.14121 13.2992C6.13581 13.4648 6.06913 13.6198 5.95293 13.736C5.94633 13.7428 5.93863 13.7485 5.93183 13.7547C5.79163 13.8837 5.60504 13.9449 5.41504 13.9239C5.21224 13.9005 5.03934 13.7888 4.92754 13.6094C4.80374 13.4104 4.80223 13.142 4.92363 12.9414C4.94743 12.902 4.97528 12.8672 5.00488 12.8344C5.12508 12.7016 5.28851 12.6239 5.47011 12.6199C5.60411 12.6169 5.73374 12.5844 5.85254 12.5274C5.92714 12.4916 5.99752 12.4462 6.06152 12.391C6.08012 12.375 6.09842 12.3586 6.11582 12.341C6.11982 12.3372 6.12315 12.3329 6.12715 12.3289ZM14.5502 12.661L14.2322 12.9813L14.5525 13.2989L14.8705 12.9789L14.5502 12.661ZM5.49043 12.9539L5.17011 13.2719L5.49043 13.5899L5.8084 13.2719L5.49043 12.9539ZM9.24668 13.2504C9.25608 13.2504 9.26501 13.252 9.27441 13.2524C9.41141 13.2582 9.54156 13.3042 9.65176 13.3914C9.79176 13.5026 9.87809 13.6625 9.89629 13.8375C9.89869 13.8601 9.8998 13.8827 9.8998 13.9059C9.8998 14.0447 9.8531 14.1773 9.7709 14.2883C9.7599 14.3031 9.7497 14.3177 9.7373 14.3317C9.7329 14.3369 9.72921 14.3431 9.72441 14.3481C9.61461 14.4659 9.53731 14.6045 9.49551 14.7531C9.47351 14.8313 9.46155 14.9122 9.46035 14.9942C9.46015 14.9986 9.45996 15.003 9.45996 15.0074C9.45996 15.01 9.46035 15.0125 9.46035 15.0153C9.44175 15.0113 9.4229 15.0083 9.4041 15.0055C9.3483 14.9967 9.29197 14.9914 9.23457 14.9914C9.17857 14.9914 9.12314 14.9969 9.06894 15.0051C9.05614 15.0071 9.04326 15.0095 9.03066 15.0117C9.03066 15.0103 9.03105 15.0088 9.03105 15.0074C9.03125 15.004 9.03066 15.0007 9.03066 14.9973C9.02986 14.9161 9.01844 14.8366 8.99824 14.7602C8.96564 14.6378 8.90965 14.5231 8.83105 14.4227C8.81225 14.3987 8.79249 14.3759 8.77129 14.3535C8.61449 14.1895 8.55632 13.9653 8.61152 13.7387C8.63912 13.6263 8.69946 13.5236 8.78066 13.4418C8.86426 13.3578 8.96995 13.2958 9.08535 13.2688C9.13975 13.2562 9.19368 13.2504 9.24668 13.2504ZM9.23769 13.5899L8.91972 13.9102C9.23772 14.228 8.91989 13.9103 9.23769 14.2281L9.55801 13.9102L9.23769 13.5899ZM13.6338 13.5942C13.6564 13.628 13.6808 13.6602 13.7072 13.6914C13.7466 13.7382 13.7905 13.7819 13.8377 13.8223C13.8697 13.8497 13.9031 13.875 13.9385 13.8992C13.9343 13.9032 13.93 13.9072 13.926 13.9114C13.9222 13.9152 13.9184 13.9195 13.9146 13.9235C13.8576 13.9825 13.8089 14.0476 13.7693 14.1176C13.7017 14.2372 13.6616 14.3702 13.6514 14.5086C13.65 14.525 13.6479 14.541 13.6475 14.5574C13.6439 14.7174 13.5835 14.8635 13.4791 14.9785C13.4721 14.9859 13.4662 14.994 13.4588 15.0012C13.4526 15.0074 13.4453 15.013 13.4389 15.0192C13.4047 15.0508 13.3678 15.0801 13.3264 15.1055C13.2192 15.1707 13.0926 15.1994 12.9674 15.1938C12.8592 15.189 12.7522 15.159 12.66 15.1016C12.481 14.99 12.3693 14.8165 12.3459 14.6133C12.3433 14.5915 12.3428 14.5699 12.3424 14.5481C12.3402 14.4135 12.3789 14.2837 12.4529 14.1731C12.4557 14.1693 12.4587 14.1654 12.4615 14.1614C12.4831 14.1308 12.5068 14.1009 12.5338 14.0739C12.5342 14.0735 12.5347 14.0733 12.5353 14.0727C12.5631 14.0451 12.593 14.0203 12.6248 13.9985C12.626 13.9977 12.6271 13.9965 12.6283 13.9957C12.7281 13.9281 12.8459 13.8898 12.9693 13.8856C12.9813 13.8852 12.9931 13.8832 13.0049 13.8824C13.1511 13.8726 13.2901 13.8321 13.4139 13.7633C13.4849 13.7239 13.5506 13.6754 13.6096 13.6184C13.6138 13.6144 13.6183 13.6105 13.6225 13.6063C13.6265 13.6023 13.63 13.5982 13.6338 13.5942ZM4.57129 13.886C4.65509 14.0094 4.75911 14.1132 4.87871 14.193C4.85811 14.211 4.83777 14.2292 4.81777 14.2492C4.64137 14.426 4.54489 14.6465 4.54629 14.8699C4.54749 15.0455 4.48041 15.21 4.35761 15.3332C4.21201 15.479 4.01103 15.5464 3.80683 15.5192C3.59883 15.491 3.4246 15.3709 3.3166 15.1801C3.2092 14.9913 3.20788 14.7557 3.31308 14.5653C3.43388 14.3467 3.64944 14.2164 3.89004 14.2164H3.89668C4.12868 14.2202 4.33501 14.125 4.50761 13.952L4.54902 13.9106C4.55682 13.9028 4.56389 13.894 4.57129 13.886ZM12.9967 14.2192L12.6764 14.5371L12.9967 14.8571L13.3146 14.5371L12.9967 14.2192ZM3.89394 14.5504L3.57597 14.8684L3.8959 15.1883L4.21386 14.8684L3.89394 14.5504ZM12.0783 15.152C12.1107 15.2004 12.1473 15.2457 12.1873 15.2887C12.2075 15.3075 12.2269 15.3273 12.2459 15.3477C12.2883 15.3873 12.3342 15.4239 12.383 15.4571C12.3788 15.4611 12.3743 15.4648 12.3701 15.4688C12.3645 15.4742 12.3599 15.4804 12.3545 15.486C12.2975 15.5462 12.2488 15.6115 12.2096 15.6821C12.1364 15.8143 12.0954 15.9621 12.092 16.1153C12.0874 16.3143 11.9968 16.4925 11.8404 16.6149C11.823 16.6287 11.804 16.6409 11.785 16.6531C11.7802 16.6561 11.7755 16.6599 11.7705 16.6629C11.7701 16.6631 11.7697 16.6635 11.7693 16.6637C11.7521 16.6741 11.7338 16.6822 11.7154 16.691C11.7068 16.6952 11.6981 16.7003 11.6893 16.7039C11.6763 16.7093 11.6628 16.7132 11.6494 16.7176C11.6344 16.7226 11.6195 16.7281 11.6041 16.7321C11.5941 16.7347 11.584 16.7361 11.574 16.7383C11.5558 16.7421 11.5379 16.7459 11.5193 16.7481C11.4843 16.7523 11.4485 16.7536 11.4131 16.7524C11.4119 16.7522 11.4108 16.7524 11.4096 16.7524C11.302 16.7476 11.1955 16.7168 11.1041 16.6598C10.9249 16.5482 10.8132 16.3743 10.79 16.1711C10.767 15.9707 10.8355 15.7739 10.9775 15.6317C10.9911 15.6181 11.0069 15.6077 11.0217 15.5953C11.0417 15.5787 11.0618 15.5615 11.0834 15.5473C11.0974 15.5383 11.1125 15.5313 11.1271 15.5235C11.1473 15.5127 11.1669 15.5014 11.1881 15.4926C11.2087 15.4842 11.2304 15.4781 11.2518 15.4719C11.268 15.4671 11.284 15.461 11.3006 15.4574C11.3264 15.452 11.3525 15.4497 11.3791 15.4473C11.3907 15.4463 11.4017 15.4434 11.4135 15.443C11.5707 15.438 11.7211 15.3968 11.8537 15.3242C11.9251 15.285 11.9908 15.2365 12.0502 15.1797C12.0558 15.1745 12.0616 15.1695 12.067 15.1641C12.071 15.1601 12.0743 15.156 12.0783 15.152ZM9.23496 15.4426C9.39876 15.4426 9.55576 15.5046 9.67636 15.6176C9.68456 15.6254 9.69355 15.6321 9.70215 15.6395C9.81435 15.7373 9.94481 15.8044 10.083 15.841C10.1622 15.8618 10.2434 15.8731 10.3248 15.8739C10.336 15.8739 10.3476 15.8733 10.3588 15.8731C10.352 15.9059 10.3456 15.9391 10.342 15.9727C10.333 16.0547 10.3332 16.1383 10.3428 16.2223C10.3432 16.2259 10.3439 16.2292 10.3443 16.2328C10.3481 16.2632 10.3538 16.2931 10.36 16.3227C10.3498 16.3225 10.3397 16.3219 10.3295 16.3219C10.2489 16.3223 10.1686 16.3328 10.0904 16.3524C9.97543 16.381 9.86651 16.4304 9.77011 16.5004C9.73931 16.523 9.70905 16.5467 9.68105 16.5735C9.51745 16.7305 9.29357 16.7892 9.06777 16.7332C8.95797 16.7064 8.85735 16.6474 8.77675 16.5684C8.69035 16.4838 8.62642 16.3766 8.59902 16.2586C8.55122 16.0524 8.59506 15.8509 8.72246 15.6903C8.75886 15.6445 8.80069 15.6049 8.84629 15.5711C8.95769 15.4885 9.09256 15.4426 9.23496 15.4426ZM11.2088 15.8719V16.3231H11.6596V15.8719H11.2088ZM9.01933 15.8832V16.3344H9.47011V15.8832H9.01933Z" fill="white"/>
</svg>
