<svg width="20" height="20" viewBox="0 0 20 20" fill="none" xmlns="http://www.w3.org/2000/svg">
<path fill-rule="evenodd" clip-rule="evenodd" d="M2.5 3.75C2.5 3.55109 2.57902 3.36032 2.71967 3.21967C2.86032 3.07902 3.05109 3 3.25 3H4.862C5.28281 3.00001 5.68952 3.15165 6.00761 3.42714C6.32571 3.70263 6.53388 4.08351 6.594 4.5H16.25C16.3534 4.49997 16.4557 4.52131 16.5504 4.5627C16.6452 4.60409 16.7304 4.66462 16.8006 4.7405C16.8709 4.81638 16.9247 4.90596 16.9586 5.00362C16.9926 5.10128 17.006 5.20491 16.998 5.308L16.64 9.961C16.5868 10.6518 16.2749 11.2971 15.7665 11.7678C15.2582 12.2385 14.5908 12.5 13.898 12.5H7.547L7.64 13.28C7.64733 13.3406 7.6766 13.3965 7.72229 13.437C7.76798 13.4775 7.82692 13.5 7.888 13.5H14.25C14.4489 13.5 14.6397 13.579 14.7803 13.7197C14.921 13.8603 15 14.0511 15 14.25C15 14.4489 14.921 14.6397 14.7803 14.7803C14.6397 14.921 14.4489 15 14.25 15H7.888C7.45967 15.0001 7.04618 14.843 6.72587 14.5587C6.40556 14.2743 6.20067 13.8823 6.15 13.457L5.11 4.72C5.10267 4.65937 5.0734 4.60351 5.02771 4.56298C4.98202 4.52245 4.92308 4.50005 4.862 4.5H3.25C3.05109 4.5 2.86032 4.42098 2.71967 4.28033C2.57902 4.13968 2.5 3.94891 2.5 3.75ZM7.368 11H13.898C14.2128 10.9999 14.5161 10.881 14.7471 10.6671C14.9781 10.4532 15.1198 10.1599 15.144 9.846L15.44 6H6.773L7.368 11Z" fill="white"/>
<path d="M10 17C10 17.2652 9.89464 17.5196 9.70711 17.7071C9.51957 17.8946 9.26522 18 9 18C8.73478 18 8.48043 17.8946 8.29289 17.7071C8.10536 17.5196 8 17.2652 8 17C8 16.7348 8.10536 16.4804 8.29289 16.2929C8.48043 16.1054 8.73478 16 9 16C9.26522 16 9.51957 16.1054 9.70711 16.2929C9.89464 16.4804 10 16.7348 10 17Z" fill="white"/>
<path d="M15 17C15 17.2652 14.8946 17.5196 14.7071 17.7071C14.5196 17.8946 14.2652 18 14 18C13.7348 18 13.4804 17.8946 13.2929 17.7071C13.1054 17.5196 13 17.2652 13 17C13 16.7348 13.1054 16.4804 13.2929 16.2929C13.4804 16.1054 13.7348 16 14 16C14.2652 16 14.5196 16.1054 14.7071 16.2929C14.8946 16.4804 15 16.7348 15 17Z" fill="white"/>
</svg>
