<svg width="20" height="20" viewBox="0 0 20 20" fill="none" xmlns="http://www.w3.org/2000/svg">
<path d="M15.0484 10.3385L15.4474 10.5503L15.2378 10.9495C14.8608 10.7493 15.195 10.9267 14.8972 10.7687C14.8796 10.7593 14.8608 10.7493 14.8386 10.7375L14.8868 10.6459L15.0484 10.3385ZM8.70982 4.98506C8.95342 5.36386 8.70982 4.98506 8.95342 5.36386L9.33242 5.11806L9.08882 4.73926L8.70982 4.98506ZM14.2278 5.16566L13.9234 5.49706L14.0902 5.65046C14.257 5.80146 14.0902 5.65046 14.257 5.80146L14.5614 5.46766L14.3944 5.31666L14.2278 5.16566ZM7.42902 9.70926L7.40482 9.71726L7.00062 9.85126L7.07042 10.0655C7.14262 10.2797 7.07042 10.0655 7.14262 10.2797L7.57122 10.1377L7.46962 9.83186L7.42902 9.70926ZM10.1966 12.6039L10.108 12.9877L10.3266 13.0395C10.5454 13.0915 10.3266 13.0395 10.5454 13.0915L10.6456 12.6663L10.6492 12.6517L10.2094 12.5479L10.1966 12.6039ZM16.7588 8.87266C16.7452 9.19966 16.7022 9.51886 16.633 9.82846L17.074 9.94666L16.9572 10.3825L16.5172 10.2645C16.42 10.5741 16.295 10.8713 16.1462 11.1543L16.5426 11.3831L16.3172 11.7739L15.9198 11.5445C15.8446 11.6627 15.7662 11.7783 15.6822 11.8899C16.5916 12.3581 17.2152 13.3059 17.2152 14.3971C17.2152 15.9513 15.9508 17.2157 14.3966 17.2157C12.8424 17.2157 11.578 15.9513 11.578 14.3971C11.578 14.2805 11.586 14.1657 11.5998 14.0525C11.5178 14.0563 11.4354 14.0587 11.3526 14.0587C10.9466 14.0587 10.5516 14.0123 10.1712 13.9273L10.053 14.3683L9.61742 14.2515L9.73542 13.8117C9.42582 13.7145 9.12862 13.5893 8.84562 13.4407L8.61662 13.8371L8.22602 13.6117L8.45542 13.2143C8.37542 13.1633 8.29682 13.1105 8.21982 13.0555L6.58182 14.6933C6.22202 15.0533 5.99282 15.4673 5.91902 15.8911C5.89502 16.0281 5.85122 16.1645 5.78842 16.2969C5.54402 16.8137 5.04962 17.1633 4.49862 17.2099C4.45362 17.2137 4.40882 17.2155 4.36402 17.2155C3.94542 17.2155 3.54382 17.0509 3.24642 16.7533C2.91702 16.4239 2.75062 15.9675 2.78982 15.5011C2.83622 14.9499 3.18602 14.4555 3.70282 14.2111C3.83502 14.1485 3.97162 14.1047 4.10862 14.0807C4.53242 14.0071 4.94642 13.7777 5.30622 13.4179L6.94422 11.7799C6.88922 11.7029 6.83622 11.6243 6.78542 11.5445L6.38802 11.7739L6.16242 11.3831L6.55882 11.1543C6.41022 10.8713 6.28502 10.5741 6.18782 10.2645L5.74782 10.3825L5.63102 9.94666L6.07202 9.82846C6.00262 9.51886 5.95962 9.19966 5.94622 8.87266H5.48942V8.42166H5.94622C5.95962 8.09466 6.00262 7.77546 6.07202 7.46586L5.63102 7.34766L5.74782 6.91206L6.18782 7.03006C6.28502 6.72046 6.41022 6.42326 6.55882 6.14026L6.16242 5.91126L6.38802 5.52066L6.78542 5.75006C6.95862 5.47806 7.15462 5.22186 7.37222 4.98566L7.04762 4.66106L7.36662 4.34226L7.69122 4.66666C7.92742 4.44906 8.18342 4.25306 8.45542 4.07986L8.22602 3.68246L8.61662 3.45686L8.84562 3.85346C9.12862 3.70466 9.42582 3.57946 9.73542 3.48226L9.61742 3.04246L10.053 2.92566L10.1712 3.36666C10.4808 3.29746 10.8 3.25446 11.127 3.24086V2.78406H11.578V3.24086C11.905 3.25446 12.2242 3.29746 12.5338 3.36666L12.6522 2.92566L13.0878 3.04246L12.9698 3.48226C13.2794 3.57946 13.5766 3.70466 13.8596 3.85346L14.0886 3.45686L14.4792 3.68246L14.2498 4.07986C14.5218 4.25306 14.778 4.44906 15.014 4.66666L15.3384 4.34226L15.6572 4.66106L15.3328 4.98566C15.5504 5.22186 15.7464 5.47806 15.9196 5.75006L16.317 5.52066L16.5424 5.91126L16.146 6.14006C16.2946 6.42326 16.42 6.72026 16.517 7.03006L16.957 6.91206L17.0738 7.34766L16.6328 7.46606C16.702 7.77566 16.7452 8.09486 16.7586 8.42186H17.2152V8.87286L16.7588 8.87266ZM16.15 9.91006L16.1596 9.87426C16.26 9.48166 16.3136 9.07046 16.3136 8.64706C16.3136 8.22366 16.26 7.81246 16.1596 7.41986L16.15 7.38426C15.6962 5.66206 14.3378 4.30366 12.6156 3.84986L12.58 3.84026C12.1872 3.73986 11.7762 3.68646 11.3528 3.68646C10.9292 3.68646 10.5182 3.74006 10.1256 3.84026C10.1136 3.84326 10.1018 3.84666 10.0898 3.84986C8.36782 4.30366 7.00942 5.66206 6.55542 7.38406L6.54582 7.42006C6.44562 7.81266 6.39202 8.22386 6.39202 8.64726C6.39202 9.07086 6.44562 9.48186 6.54582 9.87446L6.55542 9.91046C6.70302 10.4709 6.94682 10.9925 7.26742 11.4571L8.24602 10.4785C8.11562 10.2581 8.00822 10.0227 7.92662 9.77546C7.90282 9.70326 7.88042 9.63046 7.86122 9.55626C7.78662 9.27026 7.74662 8.97046 7.74522 8.66166C7.74522 8.65666 7.74482 8.65206 7.74482 8.64706C7.74482 8.57526 7.74762 8.50426 7.75162 8.43366C7.82382 7.20386 8.51462 6.13806 9.51662 5.54306C9.58202 5.50426 9.64882 5.46786 9.71662 5.43306C9.98222 5.29726 10.2666 5.19366 10.565 5.12686C10.639 5.11046 10.7136 5.09546 10.7892 5.08346C10.9728 5.05446 11.1608 5.03926 11.3526 5.03926C12.2914 5.03926 13.1474 5.40006 13.79 5.98986C13.8462 6.04126 13.9 6.09486 13.9526 6.14966C14.161 6.36666 14.3426 6.60946 14.492 6.87266C14.5296 6.93886 14.5656 7.00586 14.599 7.07446C14.8304 7.55006 14.9604 8.08346 14.9604 8.64686C14.9604 9.26486 14.804 9.84706 14.529 10.3561C14.4928 10.4231 14.454 10.4885 14.4138 10.5529C14.3738 10.6171 14.3316 10.6795 14.2878 10.7409C14.2002 10.8635 14.1054 10.9805 14.0034 11.0911C13.9522 11.1467 13.8988 11.2003 13.8442 11.2523C13.7892 11.3049 13.7328 11.3561 13.6746 11.4051C13.0942 11.8945 12.358 12.2049 11.5518 12.2489C11.4858 12.2525 11.4194 12.2547 11.3526 12.2547C11.3428 12.2547 11.3332 12.2541 11.3234 12.2539C11.2474 12.2533 11.172 12.2499 11.097 12.2447C10.9454 12.2339 10.796 12.2145 10.65 12.1855C10.5756 12.1707 10.502 12.1537 10.4294 12.1345C10.3554 12.1149 10.2828 12.0925 10.2108 12.0685C9.96862 11.9875 9.73762 11.8817 9.52122 11.7535L8.54262 12.7321C9.00742 13.0529 9.52902 13.2965 10.0894 13.4441L10.1252 13.4537C10.5178 13.5541 10.929 13.6077 11.3524 13.6077C11.4676 13.6077 11.5816 13.6023 11.6948 13.5947C11.9986 12.5735 12.8664 11.7933 13.9358 11.6167C14.035 11.6003 14.1358 11.5889 14.238 11.5831C14.2904 11.5801 14.3432 11.5783 14.3964 11.5783C14.6938 11.5783 14.9804 11.6249 15.2496 11.7107C15.664 11.1853 15.9748 10.5753 16.15 9.91006ZM16.7646 14.3971C16.7646 13.4453 16.1988 12.6251 15.387 12.2493C15.3154 12.2161 15.242 12.1865 15.1668 12.1605C15.0862 12.1327 15.004 12.1087 14.9198 12.0895C14.7514 12.0513 14.5768 12.0295 14.397 12.0295C13.3958 12.0295 12.5398 12.6551 12.1942 13.5351C12.1632 13.6139 12.137 13.6947 12.1144 13.7773C12.0936 13.8537 12.0768 13.9315 12.0638 14.0107C12.043 14.1367 12.0294 14.2653 12.0294 14.3971C12.0294 15.7025 13.0916 16.7647 14.397 16.7647C15.7024 16.7649 16.7646 15.7027 16.7646 14.3971ZM8.01882 12.6189L8.18022 12.4575L9.14222 11.4955L9.30162 11.3361L9.46302 11.1745L10.4764 10.1611L10.741 9.89666L10.9278 9.70986L11.419 9.21866C11.6008 9.03686 11.6206 8.74666 11.463 8.57166C11.379 8.47846 11.264 8.42506 11.139 8.42186C11.135 8.42166 11.1308 8.42166 11.1268 8.42166C11.0064 8.42166 10.8936 8.46826 10.8082 8.55366L10.3024 9.05926L10.0796 9.28226L9.82042 9.54146L8.82522 10.5367L8.66382 10.6981L8.50442 10.8575L7.54242 11.8195L7.38102 11.9809L7.22302 12.1389L5.62522 13.7367C5.19942 14.1627 4.70182 14.4351 4.18622 14.5251C4.08902 14.5419 3.99142 14.5737 3.89582 14.6189C3.52942 14.7921 3.27182 15.1535 3.23942 15.5391C3.21142 15.8729 3.33022 16.1993 3.56542 16.4345C3.80062 16.6697 4.12722 16.7887 4.46082 16.7605C4.84642 16.7281 5.20782 16.4705 5.38102 16.1041C5.42622 16.0087 5.45802 15.9109 5.47482 15.8139C5.56482 15.2983 5.83722 14.8005 6.26322 14.3749L7.86102 12.7771L8.01882 12.6189ZM8.25962 9.27986L9.61122 9.11286L10.1296 8.59446L8.20162 8.83246C8.21062 8.98466 8.22982 9.13426 8.25962 9.27986ZM13.4232 6.26726C12.8684 5.78386 12.1444 5.49026 11.3526 5.49026C11.2148 5.49026 11.0792 5.50006 10.946 5.51746L11.518 7.09806C11.5408 7.10006 11.5628 7.10266 11.5848 7.10566C11.7646 7.13066 11.936 7.18586 12.0962 7.27006L13.4232 6.26726ZM10.4996 5.60846C10.3536 5.64946 10.212 5.70066 10.0754 5.76126L10.7762 7.69766L10.6528 7.79866C10.4552 7.96066 10.322 8.17746 10.2674 8.42586L10.2588 8.46526L10.4892 8.23486C10.6634 8.06066 10.9004 7.96366 11.1508 7.97106C11.4006 7.97766 11.6302 8.08386 11.798 8.26986C12.1188 8.62626 12.0924 9.18306 11.7378 9.53766L11.4798 9.79566L11.5928 9.77246C11.7244 9.74546 11.847 9.69746 11.957 9.62986L12.0928 9.54626L13.6516 10.8073C13.7546 10.6977 13.8498 10.5809 13.9364 10.4575L12.3768 9.19606L12.43 9.04586C12.4552 8.97426 12.4734 8.89986 12.4836 8.82466C12.5068 8.65846 12.4924 8.49166 12.4406 8.32906L12.3924 8.17686L14.0134 6.95206C13.9322 6.82506 13.8422 6.70406 13.744 6.59026L12.1204 7.81726L11.9874 7.72906C11.845 7.63486 11.6886 7.57546 11.5226 7.55226C11.4676 7.54446 11.4126 7.54266 11.3594 7.54306L11.2 7.54426L10.4996 5.60846ZM14.171 10.0669C14.387 9.63966 14.5094 9.15766 14.5094 8.64726C14.5094 8.18606 14.4094 7.74826 14.2308 7.35306L12.912 8.34966C12.9492 8.52666 12.9556 8.70686 12.9304 8.88646C12.9234 8.93806 12.9136 8.98926 12.9014 9.04006L14.171 10.0669ZM10.3734 10.9019L9.85162 11.4237C9.98682 11.4971 10.128 11.5609 10.2742 11.6141L10.3734 10.9019ZM10.7124 11.7387C10.858 11.7689 11.0074 11.7883 11.1594 11.7975L11.4314 9.84386L10.9026 10.3727L10.7124 11.7387ZM11.6156 11.7923C12.2556 11.7391 12.8416 11.4947 13.3168 11.1159L12.0506 10.0917C11.983 10.1239 11.913 10.1513 11.841 10.1737L11.6156 11.7923ZM9.67342 5.97586C8.85842 6.49006 8.29422 7.36626 8.20822 8.37726L9.87042 8.17206C9.94682 7.94246 10.076 7.73186 10.2466 7.55966L9.67342 5.97586ZM8.38362 9.71906C8.43722 9.86746 8.50182 10.0109 8.57622 10.1483L9.09282 9.63146L8.38362 9.71906ZM5.03902 15.6373C5.03902 16.0105 4.73562 16.3139 4.36262 16.3139C3.98962 16.3139 3.68622 16.0105 3.68622 15.6373C3.68622 15.2643 3.98962 14.9609 4.36262 14.9609C4.73562 14.9609 5.03902 15.2643 5.03902 15.6373ZM4.58802 15.6373C4.58802 15.5131 4.48682 15.4119 4.36242 15.4119C4.23802 15.4119 4.13682 15.5129 4.13682 15.6373C4.13682 15.7617 4.23802 15.8629 4.36242 15.8629C4.48682 15.8629 4.58802 15.7617 4.58802 15.6373ZM15.513 13.2811C15.2954 13.0635 15.028 12.9227 14.7458 12.8589C14.6422 12.8355 14.5368 12.8231 14.431 12.8207C14.2556 12.8169 14.0796 12.8413 13.9104 12.8961C13.8042 12.9305 13.701 12.9769 13.6022 13.0347L13.273 12.9563L13.2034 13.2483L13.1394 13.5171L13.078 13.7751L13.0694 13.8109L13.924 13.6073L13.8816 13.4293L13.8742 13.3977C13.9438 13.3611 14.016 13.3333 14.09 13.3123C14.4724 13.2047 14.8976 13.3035 15.1938 13.5997C15.3776 13.7835 15.4894 14.0169 15.5174 14.2747L15.5416 14.4989L15.99 14.4503L15.9656 14.2263C15.9274 13.8705 15.7666 13.5347 15.513 13.2811ZM15.3584 15.0399L15.3536 15.0349L15.3456 15.0429L14.9092 15.1469L14.9626 15.3709C14.5312 15.6213 13.9686 15.5633 13.5998 15.1943C13.4328 15.0273 13.324 14.8167 13.2852 14.5851L13.2478 14.3627L12.803 14.4373L12.8402 14.6597C12.8948 14.9843 13.0472 15.2793 13.2806 15.5129C13.5884 15.8205 13.9926 15.9743 14.3966 15.9743C14.694 15.9743 14.991 15.8903 15.2502 15.7239L15.5604 15.7977L15.6642 15.3615L15.6722 15.3535L15.6672 15.3485L15.7638 14.9429L15.3584 15.0399Z" fill="white"/>
</svg>
