<svg width="16" height="17" viewBox="0 0 16 17" fill="none" xmlns="http://www.w3.org/2000/svg">
<path d="M9.84642 6.74133C10.0912 6.74133 10.326 6.83397 10.4991 6.99888C10.6722 7.16378 10.7695 7.38744 10.7695 7.62064V12.6034C10.7695 12.8366 10.6722 13.0603 10.4991 13.2252C10.326 13.3901 10.0912 13.4827 9.84642 13.4827C9.6016 13.4827 9.36681 13.3901 9.1937 13.2252C9.02059 13.0603 8.92334 12.8366 8.92334 12.6034V7.62064C8.92334 7.38744 9.02059 7.16378 9.1937 6.99888C9.36681 6.83397 9.6016 6.74133 9.84642 6.74133Z" fill="white"/>
<path d="M7.07711 7.62064C7.07711 7.38744 6.97986 7.16378 6.80675 6.99888C6.63364 6.83397 6.39885 6.74133 6.15403 6.74133C5.90922 6.74133 5.67443 6.83397 5.50132 6.99888C5.32821 7.16378 5.23096 7.38744 5.23096 7.62064V12.6034C5.23096 12.8366 5.32821 13.0603 5.50132 13.2252C5.67443 13.3901 5.90922 13.4827 6.15403 13.4827C6.39885 13.4827 6.63364 13.3901 6.80675 13.2252C6.97986 13.0603 7.07711 12.8366 7.07711 12.6034V7.62064Z" fill="white"/>
<path fill-rule="evenodd" clip-rule="evenodd" d="M4.61538 3.22414C4.61538 2.36904 4.97198 1.54897 5.60672 0.944328C6.24145 0.339685 7.10234 0 8 0C8.89766 0 9.75855 0.339685 10.3933 0.944328C11.028 1.54897 11.3846 2.36904 11.3846 3.22414H15.0769C15.3217 3.22414 15.5565 3.31678 15.7296 3.48168C15.9027 3.64658 16 3.87024 16 4.10345C16 4.33666 15.9027 4.56031 15.7296 4.72521C15.5565 4.89012 15.3217 4.98276 15.0769 4.98276H14.1538V11.3724C14.1538 13.3421 14.1538 14.3269 13.7514 15.0796C13.3974 15.7414 12.8326 16.2794 12.1378 16.6166C11.3477 17 10.3138 17 8.24615 17H7.75385C5.68615 17 4.65231 17 3.86215 16.6166C3.16743 16.2794 2.6026 15.7414 2.24862 15.0796C1.84615 14.3269 1.84615 13.3421 1.84615 11.3724V4.98276H0.923077C0.678262 4.98276 0.443473 4.89012 0.270363 4.72521C0.0972524 4.56031 0 4.33666 0 4.10345C0 3.87024 0.0972524 3.64658 0.270363 3.48168C0.443473 3.31678 0.678262 3.22414 0.923077 3.22414H4.61538ZM6.46154 3.22414C6.46154 2.83546 6.62363 2.4627 6.91214 2.18786C7.20066 1.91302 7.59197 1.75862 8 1.75862C8.40803 1.75862 8.79934 1.91302 9.08786 2.18786C9.37637 2.4627 9.53846 2.83546 9.53846 3.22414H6.46154ZM3.69231 4.98276H12.3077V11.3724C12.3077 12.3866 12.3065 13.0408 12.2634 13.539C12.2228 14.0174 12.1526 14.1944 12.1058 14.2812C11.9289 14.6118 11.6467 14.8806 11.2997 15.0491C11.2086 15.0937 11.0228 15.1605 10.5206 15.1992C9.99754 15.2402 9.31077 15.2414 8.24615 15.2414H7.75385C6.68923 15.2414 6.00246 15.2402 5.47938 15.1992C4.97723 15.1605 4.79138 15.0937 4.70031 15.0491C4.35281 14.8808 4.07018 14.6119 3.89292 14.2812C3.84738 14.1944 3.77723 14.0174 3.73662 13.539C3.69354 13.0408 3.69231 12.3866 3.69231 11.3724V4.98276Z" fill="white"/>
</svg>
