<svg width="18" height="18" viewBox="0 0 18 18" fill="none" xmlns="http://www.w3.org/2000/svg">
<path d="M6.67671 1.49639C6.43971 1.48876 6.19387 1.52288 5.94502 1.62602C5.2814 1.9008 4.98176 2.50424 4.74898 3.00737C4.5162 3.5105 4.3149 3.96869 4.1418 4.14189H4.14107C3.95007 4.33312 3.49115 4.53886 2.9919 4.77178C2.49265 5.0047 1.89682 5.29179 1.62593 5.94585C1.35515 6.59995 1.57382 7.22475 1.76216 7.74248C1.9505 8.26021 2.12922 8.72976 2.12911 9.00005C2.129 9.24503 1.94825 9.71156 1.75704 10.232C1.56583 10.7524 1.35088 11.3914 1.62593 12.055C1.9007 12.7186 2.50415 13.0182 3.00728 13.251C3.51041 13.4838 3.96787 13.6851 4.14107 13.8582V13.8589H4.1418C4.33302 14.0499 4.53803 14.5089 4.77095 15.0081C5.00387 15.5074 5.29097 16.1032 5.94502 16.3741C6.59912 16.6449 7.22393 16.4262 7.74166 16.2378C8.25938 16.0495 8.72966 15.8708 8.99996 15.8709C9.24494 15.871 9.71147 16.0518 10.2319 16.243C10.7523 16.4342 11.3906 16.6491 12.0542 16.3741C12.7178 16.0993 13.0174 15.4959 13.2502 14.9927C13.483 14.4896 13.685 14.0321 13.8581 13.8589V13.8582C14.0491 13.667 14.508 13.462 15.0073 13.2291C15.5065 12.9961 16.1031 12.709 16.374 12.055C16.6448 11.4009 16.4261 10.7761 16.2377 10.2583C16.0494 9.74062 15.87 9.27034 15.8701 9.00005C15.8702 8.75507 16.0517 8.28853 16.2429 7.76811C16.4341 7.2477 16.649 6.60944 16.374 5.94585C16.0992 5.28223 15.4958 4.98259 14.9926 4.7498C14.4895 4.51702 14.0313 4.31499 13.8581 4.14189C13.6669 3.95089 13.4611 3.49198 13.2282 2.99272C12.9953 2.49347 12.7082 1.89691 12.0542 1.62602C11.4001 1.35524 10.7753 1.57391 10.2575 1.76225C9.73979 1.9506 9.27025 2.13004 8.99996 2.12993C8.75497 2.12983 8.28844 1.94834 7.76802 1.75713C7.50781 1.66152 7.21804 1.56015 6.91036 1.51689C6.83344 1.50608 6.75571 1.49893 6.67671 1.49639ZM6.55 2.63017C6.75092 2.6203 7.03089 2.68507 7.37984 2.81328C7.84511 2.98423 8.36821 3.25466 8.99922 3.25493C9.63681 3.25519 10.1735 2.98958 10.642 2.81914C11.1102 2.64882 11.4513 2.59435 11.6235 2.66533C11.7952 2.73644 11.9979 3.01623 12.2087 3.46807C12.4194 3.91975 12.6119 4.48675 13.0627 4.9373C13.509 5.38333 14.0704 5.56268 14.5202 5.7708C14.9701 5.97892 15.2536 6.1799 15.3347 6.37578V6.37651C15.4159 6.57242 15.3577 6.91539 15.1867 7.38066C15.0158 7.84593 14.7453 8.36903 14.7451 9.00005C14.7448 9.63763 15.0104 10.1744 15.1809 10.6429C15.3513 11.1114 15.4059 11.4523 15.3347 11.6243C15.2636 11.796 14.9838 11.9987 14.5319 12.2095C14.0802 12.4202 13.5133 12.6127 13.0627 13.0635C12.6167 13.5098 12.4373 14.0705 12.2292 14.5203C12.0211 14.9701 11.8201 15.2537 11.6242 15.3348H11.6235C11.4276 15.416 11.0846 15.3585 10.6193 15.1875C10.1541 15.0166 9.63097 14.7462 8.99996 14.7459C8.36237 14.7456 7.82565 15.0105 7.35713 15.181C6.88861 15.3514 6.54771 15.406 6.37569 15.3348C6.20399 15.2637 6.00128 14.9839 5.79048 14.532C5.57968 14.0802 5.38763 13.5134 4.93648 13.0628C4.49018 12.6168 3.92953 12.4382 3.47969 12.23C3.02986 12.0219 2.74634 11.8202 2.66524 11.6243C2.58404 11.4284 2.64151 11.0854 2.81246 10.6202C2.9834 10.1549 3.25384 9.6318 3.25411 9.00078C3.25437 8.3632 2.98949 7.82648 2.81905 7.35796C2.64873 6.88978 2.59426 6.54866 2.66524 6.37651C2.73635 6.20482 3.01613 6.00211 3.46797 5.79131C3.91981 5.58051 4.48659 5.38846 4.93721 4.9373C5.38324 4.49101 5.56185 3.92962 5.76998 3.47978C5.9781 3.02995 6.17981 2.74643 6.37569 2.66533C6.42467 2.64503 6.48303 2.63347 6.55 2.63017ZM11.8015 5.61992C11.6554 5.62418 11.5167 5.68512 11.4148 5.78984L5.78975 11.4148C5.73577 11.4667 5.69267 11.5288 5.66298 11.5975C5.63329 11.6662 5.6176 11.7401 5.61684 11.8149C5.61608 11.8898 5.63026 11.964 5.65855 12.0333C5.68683 12.1026 5.72866 12.1655 5.78158 12.2184C5.8345 12.2713 5.89745 12.3132 5.96673 12.3415C6.03602 12.3697 6.11025 12.3839 6.18509 12.3832C6.25992 12.3824 6.33385 12.3667 6.40255 12.337C6.47125 12.3073 6.53333 12.2642 6.58516 12.2103L12.2102 6.58525C12.2913 6.50622 12.3467 6.40453 12.3691 6.29349C12.3915 6.18245 12.3799 6.06723 12.3357 5.96292C12.2915 5.85861 12.2169 5.77006 12.1216 5.70886C12.0263 5.64766 11.9147 5.61666 11.8015 5.61992ZM6.93746 5.62505C6.58936 5.62505 6.25552 5.76333 6.00938 6.00947C5.76324 6.25561 5.62496 6.58945 5.62496 6.93755C5.62496 7.28564 5.76324 7.61948 6.00938 7.86563C6.25552 8.11177 6.58936 8.25005 6.93746 8.25005C7.28555 8.25005 7.61939 8.11177 7.86553 7.86563C8.11168 7.61948 8.24996 7.28564 8.24996 6.93755C8.24996 6.58945 8.11168 6.25561 7.86553 6.00947C7.61939 5.76333 7.28555 5.62505 6.93746 5.62505ZM11.0625 9.75005C10.7144 9.75005 10.3805 9.88833 10.1344 10.1345C9.88824 10.3806 9.74996 10.7145 9.74996 11.0625C9.74996 11.4106 9.88824 11.7445 10.1344 11.9906C10.3805 12.2368 10.7144 12.375 11.0625 12.375C11.4106 12.375 11.7444 12.2368 11.9905 11.9906C12.2367 11.7445 12.375 11.4106 12.375 11.0625C12.375 10.7145 12.2367 10.3806 11.9905 10.1345C11.7444 9.88833 11.4106 9.75005 11.0625 9.75005Z" fill="white"/>
</svg>
