<svg width="16" height="16" viewBox="0 0 16 16" fill="none" xmlns="http://www.w3.org/2000/svg">
<path fill-rule="evenodd" clip-rule="evenodd" d="M15.0239 0.974848C14.3993 0.35064 13.5523 0 12.6693 0C11.7862 0 10.9393 0.35064 10.3147 0.974848L9.57427 1.71523L9.56315 1.7041L8.25296 3.01429L8.26285 3.02665L0.995002 10.2945C0.357923 10.9319 2.85725e-05 11.7962 0 12.6973V15.073C0 15.3188 0.0976679 15.5546 0.271518 15.7285C0.445368 15.9023 0.68116 16 0.927021 16H3.30267C4.20402 15.9996 5.06833 15.6413 5.7055 15.0038L15.0252 5.68535C15.6494 5.06071 16 4.21378 16 3.33072C16 2.44765 15.6494 1.60072 15.0252 0.976084L15.0239 0.974848ZM9.57427 4.33684L2.30643 11.6047C2.16297 11.7482 2.04918 11.9185 1.97156 12.106C1.89394 12.2935 1.854 12.4944 1.85404 12.6973V14.146H3.30267C3.71179 14.146 4.10608 13.9828 4.39408 13.6936L11.6619 6.42573L9.57427 4.33684ZM12.9733 5.1143L13.7137 4.37392C13.8562 4.238 13.9701 4.07494 14.0487 3.89434C14.1273 3.71375 14.1689 3.51926 14.1713 3.32233C14.1736 3.12539 14.1364 2.92999 14.0621 2.7476C13.9878 2.56522 13.8777 2.39955 13.7384 2.26032C13.5991 2.1211 13.4334 2.01115 13.251 1.93692C13.0685 1.8627 12.8731 1.82571 12.6762 1.82813C12.4792 1.83054 12.2848 1.87232 12.1042 1.951C11.9237 2.02968 11.7607 2.14367 11.6248 2.28627L10.8857 3.02665L12.9733 5.1143Z" fill="white"/>
</svg>
