<svg width="16" height="16" viewBox="0 0 16 16" fill="none" xmlns="http://www.w3.org/2000/svg">
<g clip-path="url(#clip0_118_362)">
<path d="M5.84806 15.6688C5.91473 15.6646 5.98285 15.6559 6.05181 15.6419C6.32765 15.5859 6.61696 15.4461 6.88243 15.1806L8.44181 13.6213C8.4467 13.6177 8.4515 13.6139 8.45618 13.61C8.51902 13.5857 8.63629 13.5455 8.90618 13.3738C9.23642 13.1637 9.70341 12.8112 10.2781 12.2394C10.2852 12.2332 10.2921 12.2268 10.2987 12.22L10.3024 12.2163L12.7624 9.75565L12.7649 9.75377C12.795 9.73259 12.8212 9.70637 12.8424 9.67627L14.8543 7.66439C15.3539 7.1648 15.3539 6.34524 14.8543 5.84564C14.6845 5.67584 14.4736 5.58565 14.2549 5.53127L14.6268 5.15939C15.1264 4.6598 15.1264 3.84024 14.6268 3.34064C14.433 3.14697 14.1876 3.04921 13.9349 3.00564C14.1797 2.5227 14.1168 1.92068 13.7149 1.51877C13.2415 1.04538 12.4891 1.03631 11.9856 1.46002C11.9337 1.2319 11.842 1.0115 11.6656 0.835019C11.166 0.335422 10.3464 0.335422 9.84681 0.835019L6.92181 3.7594C6.89417 3.77937 6.86991 3.80364 6.84993 3.83127L6.16118 4.52002L6.26306 3.57252L6.26181 3.58065C6.26181 3.58065 6.32206 3.16329 6.22118 2.71127C6.17074 2.48526 6.07951 2.23989 5.89556 2.03314C5.7116 1.8264 5.42683 1.67465 5.08243 1.65314C4.7708 1.63366 4.49293 1.74868 4.28993 1.91314C4.08693 2.07761 3.94563 2.28523 3.83993 2.48439C3.62887 2.88206 3.55306 3.27502 3.55306 3.27502L2.49181 8.1894L1.19181 9.4894C1.19181 9.4894 0.899952 9.77835 0.793056 10.2419C0.68616 10.7054 0.789674 11.3623 1.41931 11.9919L4.60806 15.1806C4.60806 15.1806 4.87984 15.4585 5.30243 15.5994C5.4609 15.6522 5.64803 15.6812 5.84806 15.6688ZM5.81181 15.0469C5.70367 15.0493 5.60269 15.0251 5.50493 14.9925C5.24425 14.9056 5.06056 14.7281 5.06056 14.7281L1.87181 11.5394C1.36288 11.0305 1.35298 10.6624 1.41681 10.3856C1.48063 10.1089 1.64431 9.9419 1.64431 9.9419L2.79118 8.79502C3.6572 9.59465 4.46368 10.0019 4.46368 10.0019C4.46922 10.0048 4.47485 10.0075 4.48056 10.01C4.48056 10.01 6.04994 10.7007 6.88556 11.5363C7.53367 12.1844 7.80408 12.9469 7.89493 13.2631L6.42993 14.7281C6.23988 14.9182 6.07364 15.0056 5.92243 15.035C5.88463 15.0424 5.84785 15.0461 5.81181 15.0469ZM8.44931 12.8981C8.29892 12.4559 7.97634 11.7221 7.33806 11.0838C6.36754 10.1133 4.80088 9.45079 4.74993 9.4294C4.74993 9.4294 4.03405 9.04481 3.25431 8.33252L5.04993 6.53689L5.05118 6.53564C5.05458 6.53259 5.05792 6.52947 5.06118 6.52627H5.06368C5.07046 6.53326 5.07755 6.53993 5.08493 6.54627L7.77056 8.78439C7.78265 8.7991 7.79604 8.8127 7.81056 8.82502C7.84455 8.86868 8.19158 9.31463 8.62743 9.8594C9.08462 10.4308 9.58141 11.044 9.84681 11.3094C9.99911 11.4618 9.96987 11.5183 9.93993 11.6081C9.91079 11.6956 9.8519 11.7614 9.84868 11.765L9.84681 11.7675C9.29246 12.3219 8.8544 12.648 8.56243 12.8338C8.51026 12.867 8.49085 12.8738 8.44931 12.8981ZM10.4893 11.1244C10.444 11.0313 10.3829 10.9406 10.2993 10.8569C10.1093 10.6669 9.58074 10.0268 9.12681 9.4594C8.76609 9.00854 8.56881 8.754 8.45056 8.60252L9.84493 7.20815L10.9487 8.31189C10.9684 8.33899 10.9922 8.36282 11.0193 8.38252L12.1249 9.48877L10.4893 11.1244ZM12.5774 9.03627L11.6637 8.12252L13.4843 6.30127L13.4874 6.29877L13.4881 6.29752C13.7431 6.04319 14.1471 6.04338 14.4018 6.29814C14.6568 6.55311 14.6568 6.95693 14.4018 7.21189L12.5774 9.03627ZM8.00368 8.14439L5.51556 6.07127L5.93618 5.65064C5.96166 5.63179 5.9842 5.60925 6.00306 5.58377L7.11181 4.47502L8.21493 5.57814C8.23545 5.60687 8.26058 5.632 8.28931 5.65252L9.39243 6.75564L8.00368 8.14439ZM11.2112 7.67002L10.2974 6.75564L13.2568 3.79627L13.2599 3.79314C13.267 3.78606 13.2729 3.78039 13.2774 3.77627L13.2793 3.77439C13.5345 3.53943 13.9248 3.54495 14.1737 3.79314C14.4286 4.04811 14.4286 4.45193 14.1737 4.70689L13.0368 5.84439L13.0349 5.84564L13.0306 5.85064L11.2112 7.67002ZM3.32681 7.35439L4.17931 3.40627L4.18056 3.4019C4.18056 3.4019 4.2468 3.08351 4.40556 2.78439C4.48493 2.63484 4.5858 2.49704 4.69243 2.41064C4.79907 2.32425 4.89855 2.2829 5.04243 2.29189C5.23867 2.30415 5.33454 2.36498 5.41743 2.45814C5.50032 2.55131 5.56177 2.69365 5.59681 2.85064C5.66688 3.16463 5.62743 3.49627 5.62743 3.49627C5.62719 3.49877 5.62699 3.50127 5.62681 3.50377L5.43931 5.2419L4.60806 6.07377L3.32681 7.35439ZM9.84493 6.30314L8.93118 5.38877L11.6493 2.67002L11.6656 2.65439L12.3487 1.97127C12.6036 1.71631 13.0075 1.71631 13.2624 1.97127C13.5174 2.22623 13.5174 2.63006 13.2624 2.88502L12.8074 3.34064L9.84493 6.30314ZM8.47868 4.93627L7.56431 4.02252L10.2993 1.28752C10.5543 1.03256 10.9581 1.03256 11.2131 1.28752C11.4684 1.54291 11.4683 1.94688 11.2131 2.20189L8.47868 4.93627Z" fill="white"/>
</g>
<defs>
<clipPath id="clip0_118_362">
<rect width="16" height="16" fill="white" transform="matrix(-1 0 0 -1 16 16)"/>
</clipPath>
</defs>
</svg>
