<svg width="26" height="26" viewBox="0 0 26 26" fill="none" xmlns="http://www.w3.org/2000/svg">
<path d="M15.2749 14.3C15.2749 14.0414 15.3776 13.7933 15.5605 13.6106C15.7433 13.4277 15.9913 13.325 16.2499 13.325H17.8749C18.1335 13.325 18.3815 13.4277 18.5643 13.6106C18.7472 13.7933 18.8499 14.0414 18.8499 14.3C18.8499 14.5585 18.7472 14.8066 18.5643 14.9893C18.3815 15.1723 18.1335 15.275 17.8749 15.275H16.2499C15.9913 15.275 15.7433 15.1723 15.5605 14.9893C15.3776 14.8066 15.2749 14.5585 15.2749 14.3Z" fill="white"/>
<path d="M16.2499 10.4C15.9913 10.4 15.7433 10.5028 15.5605 10.6856C15.3776 10.8684 15.2749 11.1164 15.2749 11.375C15.2749 11.6336 15.3776 11.8816 15.5605 12.0645C15.7433 12.2473 15.9913 12.35 16.2499 12.35H17.8749C18.1335 12.35 18.3815 12.2473 18.5643 12.0645C18.7472 11.8816 18.8499 11.6336 18.8499 11.375C18.8499 11.1164 18.7472 10.8684 18.5643 10.6856C18.3815 10.5028 18.1335 10.4 17.8749 10.4H16.2499Z" fill="white"/>
<path fill-rule="evenodd" clip-rule="evenodd" d="M10.3999 14.95C11.2619 14.95 12.0885 14.6075 12.698 13.9981C13.3075 13.3885 13.6499 12.5619 13.6499 11.7C13.6499 10.838 13.3075 10.0113 12.698 9.40185C12.0885 8.79236 11.2619 8.44995 10.3999 8.44995C9.53795 8.44995 8.71129 8.79236 8.1018 9.40185C7.49231 10.0113 7.1499 10.838 7.1499 11.7C7.1499 12.5619 7.49231 13.3885 8.1018 13.9981C8.71129 14.6075 9.53795 14.95 10.3999 14.95ZM10.3999 13C10.7447 13 11.0753 12.863 11.3191 12.6192C11.5629 12.3754 11.6999 12.0447 11.6999 11.7C11.6999 11.3552 11.5629 11.0245 11.3191 10.7807C11.0753 10.5369 10.7447 10.4 10.3999 10.4C10.0551 10.4 9.72446 10.5369 9.48066 10.7807C9.23687 11.0245 9.0999 11.3552 9.0999 11.7C9.0999 12.0447 9.23687 12.3754 9.48066 12.6192C9.72446 12.863 10.0551 13 10.3999 13Z" fill="white"/>
<path fill-rule="evenodd" clip-rule="evenodd" d="M11.0733 5.19995H14.9265C15.9834 5.19995 16.8362 5.19995 17.5265 5.25585C18.2363 5.31435 18.8603 5.43785 19.4375 5.73165C20.3554 6.19883 21.1018 6.94473 21.5695 7.86235C21.8633 8.43955 21.9855 9.06355 22.044 9.77335C22.0999 10.4637 22.0999 11.3165 22.0999 12.3734V13.6266C22.0999 14.6835 22.0999 15.5363 22.044 16.2266C21.9855 16.9364 21.862 17.5604 21.5682 18.1376C21.101 19.0555 20.3552 19.8018 19.4375 20.2696C18.8603 20.5634 18.2363 20.6856 17.5265 20.7441C16.8362 20.8 15.9834 20.8 14.9265 20.8H11.0733C10.0164 20.8 9.1636 20.8 8.4733 20.7441C7.7635 20.6856 7.1395 20.5621 6.5623 20.2683C5.64459 19.8014 4.89826 19.056 4.4303 18.1389C4.1365 17.5604 4.0143 16.9364 3.9558 16.2266C3.8999 15.5363 3.8999 14.6835 3.8999 13.6266V12.3734C3.8999 11.3165 3.8999 10.4637 3.9558 9.77335C4.0143 9.06355 4.1378 8.43955 4.4316 7.86235C4.89878 6.94445 5.64468 6.19809 6.5623 5.73035C7.1395 5.43655 7.7635 5.31435 8.4733 5.25585C9.1636 5.19995 10.0164 5.19995 11.0733 5.19995ZM8.6332 7.19935C8.043 7.24745 7.7037 7.33845 7.4476 7.46845C6.89674 7.74897 6.44892 8.19679 6.1684 8.74765C6.0384 9.00375 5.9474 9.34305 5.8993 9.93325C5.8512 10.5339 5.8499 11.3074 5.8499 12.415V13.585C5.8499 14.6939 5.8499 15.4661 5.8993 16.068C5.9253 16.3852 5.9643 16.6296 6.0137 16.8272C7.38358 15.9963 8.9613 15.5716 10.5632 15.6027C12.165 15.6338 13.725 16.1193 15.0617 17.0027C15.8136 17.4995 16.4808 18.114 17.0377 18.8227C17.1547 18.8162 17.2626 18.8097 17.3666 18.8006C17.9568 18.7525 18.2961 18.6615 18.5522 18.5315C19.103 18.2509 19.5509 17.8031 19.8314 17.2523C19.9614 16.9962 20.0524 16.6569 20.1005 16.0667C20.1486 15.4661 20.1499 14.6939 20.1499 13.585V12.415C20.1499 11.3074 20.1499 10.5339 20.1005 9.93195C20.0524 9.34305 19.9614 9.00375 19.8314 8.74765C19.5509 8.19679 19.103 7.74897 18.5522 7.46845C18.2961 7.33845 17.9568 7.24745 17.3666 7.19935C16.766 7.15125 15.9938 7.14995 14.8849 7.14995H11.1149C10.0073 7.14995 9.2351 7.14995 8.6332 7.19935ZM14.2999 18.85C13.419 18.1884 12.3842 17.762 11.293 17.6111C9.88066 17.4151 8.4431 17.6893 7.2019 18.3911C7.2799 18.4418 7.3631 18.4886 7.4476 18.5315C7.7037 18.6615 8.043 18.7525 8.6332 18.8006C9.2338 18.8487 10.0073 18.85 11.1149 18.85H14.2999Z" fill="white"/>
<path fill-rule="evenodd" clip-rule="evenodd" d="M10.3999 10.4C10.0551 10.4 9.72446 10.5369 9.48066 10.7807C9.23687 11.0245 9.0999 11.3552 9.0999 11.7C9.0999 12.0447 9.23687 12.3754 9.48066 12.6192C9.72446 12.863 10.0551 13 10.3999 13C10.7447 13 11.0753 12.863 11.3191 12.6192C11.5629 12.3754 11.6999 12.0447 11.6999 11.7C11.6999 11.3552 11.5629 11.0245 11.3191 10.7807C11.0753 10.5369 10.7447 10.4 10.3999 10.4ZM7.1499 11.7C7.1499 10.838 7.49231 10.0113 8.1018 9.40185C8.71129 8.79236 9.53795 8.44995 10.3999 8.44995C11.2619 8.44995 12.0885 8.79236 12.698 9.40185C13.3075 10.0113 13.6499 10.838 13.6499 11.7C13.6499 12.5619 13.3075 13.3885 12.698 13.9981C12.0885 14.6075 11.2619 14.95 10.3999 14.95C9.53795 14.95 8.71129 14.6075 8.1018 13.9981C7.49231 13.3885 7.1499 12.5619 7.1499 11.7Z" fill="white"/>
</svg>
