<svg width="21" height="21" viewBox="0 0 21 21" fill="none" xmlns="http://www.w3.org/2000/svg">
<path fill-rule="evenodd" clip-rule="evenodd" d="M8.73815 5.98665C9.8596 5.48068 11.1183 5.36532 12.313 5.65901C13.5078 5.9527 14.5696 6.63848 15.3286 7.60671C16.0877 8.57495 16.5002 9.76971 16.5002 11C16.5002 11.8745 16.2729 12.4408 15.9992 12.7734C15.733 13.0968 15.3847 13.25 15.0002 13.25C14.3615 13.25 14.0396 13.0284 13.8385 12.7269C13.6017 12.3717 13.4645 11.7976 13.4645 11.0001V9.87155C13.4647 9.8616 13.4647 9.85164 13.4645 9.84167V8.42872C13.4645 8.0145 13.1287 7.67872 12.7145 7.67872C12.5078 7.67872 12.3206 7.76236 12.1849 7.89766C11.7466 7.59742 11.1722 7.3929 10.4287 7.3929C9.27024 7.3929 8.4769 7.99358 8.007 8.7454C7.55757 9.46449 7.39299 10.3259 7.39299 11C7.39299 11.6742 7.55757 12.5356 8.007 13.2547C8.4769 14.0065 9.27024 14.6072 10.4287 14.6072C11.38 14.6072 12.0844 14.1395 12.5481 13.6699C12.5716 13.6461 12.5946 13.6222 12.6171 13.5982C13.1319 14.3431 13.943 14.75 15.0002 14.75C15.824 14.75 16.6007 14.4032 17.1574 13.7266C17.7066 13.0592 18.0002 12.1255 18.0002 11C18.0002 9.43418 17.4752 7.91356 16.5091 6.68127C15.543 5.44898 14.1917 4.57617 12.6711 4.20238C11.1505 3.82859 9.54855 3.97541 8.12125 4.61937C6.69396 5.26333 5.52378 6.36724 4.79781 7.75461C4.07184 9.14198 3.832 10.7327 4.11663 12.2724C4.40126 13.8122 5.19393 15.212 6.3679 16.2482C7.54188 17.2843 9.02937 17.897 10.5926 17.9881C12.1557 18.0793 13.7044 17.6437 14.9908 16.751C15.3311 16.5149 15.4156 16.0476 15.1794 15.7073C14.9433 15.367 14.476 15.2825 14.1357 15.5187C13.1249 16.2201 11.9081 16.5623 10.6799 16.4907C9.45166 16.4191 8.28292 15.9377 7.36052 15.1236C6.43811 14.3094 5.8153 13.2096 5.59166 11.9998C5.36802 10.79 5.55647 9.54013 6.12687 8.45005C6.69728 7.35997 7.6167 6.49262 8.73815 5.98665ZM12.0146 11.8645C11.9793 11.58 11.9645 11.2896 11.9645 11.0001V10.0239C11.9533 9.9988 11.9423 9.97393 11.9314 9.94928C11.8416 9.74525 11.7585 9.55665 11.5786 9.35107C11.379 9.12299 11.0568 8.8929 10.4287 8.8929C9.87295 8.8929 9.52341 9.14937 9.27902 9.5404C9.01416 9.96417 8.89301 10.5313 8.89301 11C8.89301 11.4687 9.01416 12.0359 9.27902 12.4597C9.52341 12.8507 9.87295 13.1072 10.4287 13.1072C10.8489 13.1072 11.1921 12.9082 11.4808 12.6159C11.7437 12.3497 11.9209 12.0446 12.0146 11.8645Z" fill="white"/>
</svg>
