<svg width="24" height="24" viewBox="0 0 24 24" fill="none" xmlns="http://www.w3.org/2000/svg">
<path fill-rule="evenodd" clip-rule="evenodd" d="M6.6001 7.79998C6.6001 5.48038 8.4805 3.59998 10.8001 3.59998C13.1197 3.59998 15.0001 5.48038 15.0001 7.79998C15.0001 10.1196 13.1197 12 10.8001 12C8.4805 12 6.6001 10.1196 6.6001 7.79998ZM10.8001 5.39998C9.4741 5.39998 8.4001 6.47398 8.4001 7.79998C8.4001 9.12598 9.4741 10.2 10.8001 10.2C12.1261 10.2 13.2001 9.12598 13.2001 7.79998C13.2001 6.47398 12.1261 5.39998 10.8001 5.39998Z" fill="white"/>
<path d="M10.8005 15C8.71966 15 6.80446 16.128 5.79286 17.946L5.43046 18.6H12.3004C12.7972 18.6 13.2004 19.0032 13.2004 19.5C13.2004 19.9968 12.7972 20.4 12.3004 20.4H5.09926C3.87526 20.4 3.10125 19.0848 3.69525 18.0156L4.21965 17.0724C5.54685 14.682 8.06685 13.2 10.8005 13.2C11.2973 13.2 11.7005 13.6032 11.7005 14.1C11.7005 14.5968 11.2973 15 10.8005 15Z" fill="white"/>
<path d="M18.6 13.65C18.6 14.2296 18.1296 14.7 17.55 14.7C16.9704 14.7 16.5 14.2296 16.5 13.65C16.5 13.0704 16.9704 12.6 17.55 12.6C18.1296 12.6 18.6 13.0704 18.6 13.65Z" fill="white"/>
<path fill-rule="evenodd" clip-rule="evenodd" d="M13.5 13.6512C13.5 11.4132 15.3132 9.59998 17.5512 9.59998C19.788 9.59998 21.6024 11.4132 21.6024 13.6512V14.5224C21.6024 15.3996 21.1644 16.1748 20.4948 16.6416C20.5548 17.0652 20.4924 17.4972 20.3208 17.8848C20.6748 18.7872 20.4612 19.8648 19.6704 20.556L19.194 20.9724C18.096 21.93 16.4052 21.6972 15.6072 20.478L15.216 19.8804C14.9604 19.4904 14.8248 19.0332 14.8248 18.5664V16.776C14.034 16.3356 13.5 15.492 13.5 14.5212V13.6512ZM16.392 15.3996C16.3032 15.3384 16.1964 15.3024 16.08 15.3024C15.6492 15.3024 15.3 14.9532 15.3 14.5224V13.6512C15.3 12.408 16.308 11.4 17.5512 11.4C18.7944 11.4 19.8024 12.408 19.8024 13.6512V14.5224C19.8024 14.9532 19.4532 15.3024 19.0224 15.3024H18.726C18.5988 15.3024 18.48 15.3432 18.384 15.4128C18.2472 15.5112 18.156 15.6672 18.1428 15.846L18.1416 15.864V15.888C18.1416 16.0224 18.1872 16.1544 18.2736 16.2588L18.612 16.6728C18.8088 16.9128 18.7164 17.2752 18.4284 17.3928L18.4248 17.394C18.1932 17.49 18.096 17.7396 18.1608 17.9532C18.1848 18.0372 18.2352 18.1152 18.3108 18.1776L18.4704 18.3084C18.4872 18.3204 18.5016 18.3336 18.516 18.348C18.7512 18.5832 18.744 18.9756 18.486 19.2L18.0096 19.6164C17.8176 19.7844 17.55 19.806 17.3388 19.6968C17.3268 19.6908 17.3136 19.6836 17.3016 19.6752L17.2956 19.6728C17.2548 19.6464 17.2176 19.6164 17.1828 19.5804L17.1756 19.572C17.1528 19.548 17.1324 19.5216 17.1132 19.4928L16.722 18.8952C16.6584 18.7968 16.6236 18.6828 16.6236 18.5664V15.846C16.6236 15.6612 16.5336 15.498 16.392 15.3996Z" fill="white"/>
</svg>
