<svg width="20" height="20" viewBox="0 0 20 20" fill="none" xmlns="http://www.w3.org/2000/svg">
<path d="M4.25 3C3.78587 3 3.34075 3.18437 3.01256 3.51256C2.68437 3.84075 2.5 4.28587 2.5 4.75V15.25C2.5 16.216 3.284 17 4.25 17H8.75C8.94891 17 9.13968 16.921 9.28033 16.7803C9.42098 16.6397 9.5 16.4489 9.5 16.25C9.5 16.0511 9.42098 15.8603 9.28033 15.7197C9.13968 15.579 8.94891 15.5 8.75 15.5H4.25C4.1837 15.5 4.12011 15.4737 4.07322 15.4268C4.02634 15.3799 4 15.3163 4 15.25V4.75C4 4.6837 4.02634 4.62011 4.07322 4.57322C4.12011 4.52634 4.1837 4.5 4.25 4.5H12.25C12.3163 4.5 12.3799 4.52634 12.4268 4.57322C12.4737 4.62011 12.5 4.6837 12.5 4.75V7.5C12.5 7.69891 12.579 7.88968 12.7197 8.03033C12.8603 8.17098 13.0511 8.25 13.25 8.25C13.4489 8.25 13.6397 8.17098 13.7803 8.03033C13.921 7.88968 14 7.69891 14 7.5V4.75C14 4.28587 13.8156 3.84075 13.4874 3.51256C13.1592 3.18437 12.7141 3 12.25 3H4.25Z" fill="white"/>
<path d="M5.5 6.75C5.5 6.55109 5.57902 6.36032 5.71967 6.21967C5.86032 6.07902 6.05109 6 6.25 6H10.25C10.4489 6 10.6397 6.07902 10.7803 6.21967C10.921 6.36032 11 6.55109 11 6.75C11 6.94891 10.921 7.13968 10.7803 7.28033C10.6397 7.42098 10.4489 7.5 10.25 7.5H6.25C6.05109 7.5 5.86032 7.42098 5.71967 7.28033C5.57902 7.13968 5.5 6.94891 5.5 6.75Z" fill="white"/>
<path d="M14 10.25C14 10.0511 13.921 9.86032 13.7803 9.71967C13.6397 9.57902 13.4489 9.5 13.25 9.5C13.0511 9.5 12.8603 9.57902 12.7197 9.71967C12.579 9.86032 12.5 10.0511 12.5 10.25V10.5C11.9696 10.5 11.4609 10.7107 11.0858 11.0858C10.7107 11.4609 10.5 11.9696 10.5 12.5C10.5 13.0304 10.7107 13.5391 11.0858 13.9142C11.4609 14.2893 11.9696 14.5 12.5 14.5H13.5C13.6326 14.5 13.7598 14.5527 13.8536 14.6464C13.9473 14.7402 14 14.8674 14 15C14 15.1326 13.9473 15.2598 13.8536 15.3536C13.7598 15.4473 13.6326 15.5 13.5 15.5H11.25C11.0511 15.5 10.8603 15.579 10.7197 15.7197C10.579 15.8603 10.5 16.0511 10.5 16.25C10.5 16.4489 10.579 16.6397 10.7197 16.7803C10.8603 16.921 11.0511 17 11.25 17H12C12 17.1989 12.079 17.3897 12.2197 17.5303C12.3603 17.671 12.5511 17.75 12.75 17.75C12.9489 17.75 13.1397 17.671 13.2803 17.5303C13.421 17.3897 13.5 17.1989 13.5 17C14.0304 17 14.5391 16.7893 14.9142 16.4142C15.2893 16.0391 15.5 15.5304 15.5 15C15.5 14.4696 15.2893 13.9609 14.9142 13.5858C14.5391 13.2107 14.0304 13 13.5 13H12.5C12.3674 13 12.2402 12.9473 12.1464 12.8536C12.0527 12.7598 12 12.6326 12 12.5C12 12.3674 12.0527 12.2402 12.1464 12.1464C12.2402 12.0527 12.3674 12 12.5 12H14.75C14.9489 12 15.1397 11.921 15.2803 11.7803C15.421 11.6397 15.5 11.4489 15.5 11.25C15.5 11.0511 15.421 10.8603 15.2803 10.7197C15.1397 10.579 14.9489 10.5 14.75 10.5H14V10.25Z" fill="white"/>
<path d="M6.25 9C6.05109 9 5.86032 9.07902 5.71967 9.21967C5.57902 9.36032 5.5 9.55109 5.5 9.75C5.5 9.94891 5.57902 10.1397 5.71967 10.2803C5.86032 10.421 6.05109 10.5 6.25 10.5H9C9.19891 10.5 9.38968 10.421 9.53033 10.2803C9.67098 10.1397 9.75 9.94891 9.75 9.75C9.75 9.55109 9.67098 9.36032 9.53033 9.21967C9.38968 9.07902 9.19891 9 9 9H6.25Z" fill="white"/>
<path d="M5.5 12.75C5.5 12.5511 5.57902 12.3603 5.71967 12.2197C5.86032 12.079 6.05109 12 6.25 12H8.75C8.94891 12 9.13968 12.079 9.28033 12.2197C9.42098 12.3603 9.5 12.5511 9.5 12.75C9.5 12.9489 9.42098 13.1397 9.28033 13.2803C9.13968 13.421 8.94891 13.5 8.75 13.5H6.25C6.05109 13.5 5.86032 13.421 5.71967 13.2803C5.57902 13.1397 5.5 12.9489 5.5 12.75Z" fill="white"/>
</svg>
