<svg width="20" height="20" viewBox="0 0 20 20" fill="none" xmlns="http://www.w3.org/2000/svg">
<path d="M10.7238 3C9.70376 3 8.72976 3.415 8.02276 4.149L3.76876 8.566C2.72876 9.646 2.74576 11.358 3.80476 12.418L7.91776 16.53C8.21076 16.823 8.68476 16.823 8.97776 16.53C9.27076 16.237 9.27076 15.763 8.97776 15.47L4.86576 11.357C4.38376 10.876 4.37676 10.097 4.84976 9.607L9.10276 5.189C9.52676 4.749 10.1128 4.5 10.7228 4.5H12.6978C13.6638 4.5 14.4478 5.284 14.4478 6.25V8.621C14.4478 8.979 14.3018 9.321 14.0448 9.569C13.7468 9.856 13.7378 10.331 14.0248 10.629C14.3118 10.928 14.7868 10.937 15.0848 10.649C15.6368 10.119 15.9478 9.387 15.9478 8.621V6.25C15.9478 4.455 14.4928 3 12.6978 3H10.7238Z" fill="white"/>
<path d="M12.4482 7.5C13.0002 7.5 13.4482 7.052 13.4482 6.5C13.4482 5.948 13.0002 5.5 12.4482 5.5C11.8962 5.5 11.4482 5.948 11.4482 6.5C11.4482 7.052 11.8962 7.5 12.4482 7.5Z" fill="white"/>
<path d="M11 12.75C11 12.336 11.336 12 11.75 12H16.25C16.664 12 17 12.336 17 12.75C17 13.164 16.664 13.5 16.25 13.5H11.75C11.336 13.5 11 13.164 11 12.75Z" fill="white"/>
<path d="M11 15.75C11 15.336 11.336 15 11.75 15H16.25C16.664 15 17 15.336 17 15.75C17 16.164 16.664 16.5 16.25 16.5H11.75C11.336 16.5 11 16.164 11 15.75Z" fill="white"/>
</svg>
