<svg width="20" height="20" viewBox="0 0 20 20" fill="none" xmlns="http://www.w3.org/2000/svg">
<path d="M13 8C13.2652 8 13.5196 7.89464 13.7071 7.70711C13.8946 7.51957 14 7.26522 14 7C14 6.73478 13.8946 6.48043 13.7071 6.29289C13.5196 6.10536 13.2652 6 13 6C12.7348 6 12.4804 6.10536 12.2929 6.29289C12.1054 6.48043 12 6.73478 12 7C12 7.26522 12.1054 7.51957 12.2929 7.70711C12.4804 7.89464 12.7348 8 13 8Z" fill="white"/>
<path fill-rule="evenodd" clip-rule="evenodd" d="M11.276 3.5C10.7717 3.50005 10.2725 3.60183 9.80842 3.79925C9.34433 3.99668 8.92483 4.28569 8.57501 4.649L4.32101 9.066C3.82132 9.58484 3.54515 10.279 3.55188 10.9994C3.55861 11.7197 3.84771 12.4086 4.35701 12.918L7.25501 15.816C7.71809 16.2791 8.3444 16.542 8.99927 16.5482C9.65415 16.5543 10.2853 16.3033 10.757 15.849L15.504 11.278C15.8189 10.9748 16.0695 10.6112 16.2406 10.209C16.4117 9.80677 16.5 9.37413 16.5 8.937V6.75C16.5 5.88805 16.1576 5.0614 15.5481 4.4519C14.9386 3.84241 14.112 3.5 13.25 3.5H11.276ZM9.65601 5.69C9.86578 5.47198 10.1174 5.2985 10.3957 5.17995C10.6741 5.06139 10.9735 5.00019 11.276 5H13.25C14.216 5 15 5.784 15 6.75V8.937C15 9.412 14.806 9.867 14.464 10.197L9.71701 14.769C9.52821 14.9507 9.27565 15.051 9.01365 15.0484C8.75165 15.0457 8.50115 14.9404 8.31601 14.755L5.41801 11.857C5.18683 11.6254 5.05566 11.3125 5.05267 10.9853C5.04968 10.6581 5.1751 10.3427 5.40201 10.107L9.65501 5.689L9.65601 5.69Z" fill="white"/>
</svg>
