<svg width="20" height="20" viewBox="0 0 20 20" fill="none" xmlns="http://www.w3.org/2000/svg">
<path d="M8.57501 4.649C8.92471 4.28581 9.34405 3.99687 9.80797 3.79945C10.2719 3.60203 10.7708 3.50018 11.275 3.5H13.25C14.112 3.5 14.9386 3.84241 15.5481 4.4519C16.1576 5.0614 16.5 5.88805 16.5 6.75V9.121C16.5 9.887 16.189 10.619 15.637 11.15C15.5668 11.2217 15.4829 11.2787 15.3903 11.3174C15.2977 11.3561 15.1983 11.3759 15.0979 11.3755C14.9976 11.3751 14.8983 11.3546 14.806 11.3151C14.7137 11.2756 14.6303 11.218 14.5607 11.1457C14.491 11.0734 14.4366 10.9879 14.4007 10.8942C14.3647 10.8005 14.3479 10.7005 14.3513 10.6002C14.3547 10.4999 14.3782 10.4013 14.4204 10.3102C14.4626 10.2191 14.5227 10.1374 14.597 10.07C14.855 9.821 15 9.479 15 9.121V6.75C15 6.28587 14.8156 5.84075 14.4875 5.51256C14.1593 5.18437 13.7141 5 13.25 5H11.276C10.9735 5.00019 10.6741 5.06139 10.3957 5.17995C10.1174 5.2985 9.86578 5.47198 9.65601 5.69L5.40201 10.107C5.1751 10.3427 5.04968 10.6581 5.05267 10.9853C5.05566 11.3125 5.18683 11.6254 5.41801 11.857L8.31601 14.755C8.5011 14.9401 8.7514 15.0453 9.01316 15.0479C9.27491 15.0505 9.52726 14.9504 9.71601 14.769L10.167 14.335C10.2372 14.2633 10.3211 14.2063 10.4137 14.1676C10.5063 14.1289 10.6057 14.1091 10.7061 14.1095C10.8065 14.1099 10.9057 14.1304 10.998 14.1699C11.0903 14.2094 11.1737 14.267 11.2434 14.3393C11.313 14.4116 11.3674 14.4971 11.4033 14.5908C11.4393 14.6845 11.4561 14.7845 11.4527 14.8848C11.4493 14.9851 11.4258 15.0837 11.3836 15.1748C11.3414 15.2659 11.2814 15.3476 11.207 15.415L10.757 15.849C10.2853 16.3033 9.65415 16.5543 8.99927 16.5482C8.3444 16.542 7.71809 16.2791 7.25501 15.816L4.35701 12.918C3.84771 12.4086 3.55861 11.7197 3.55188 10.9994C3.54515 10.279 3.82132 9.58484 4.32101 9.066L8.57501 4.649Z" fill="white"/>
<path d="M14 7C14 7.26522 13.8946 7.51957 13.7071 7.70711C13.5196 7.89464 13.2652 8 13 8C12.7348 8 12.4804 7.89464 12.2929 7.70711C12.1054 7.51957 12 7.26522 12 7C12 6.73478 12.1054 6.48043 12.2929 6.29289C12.4804 6.10536 12.7348 6 13 6C13.2652 6 13.5196 6.10536 13.7071 6.29289C13.8946 6.48043 14 6.73478 14 7Z" fill="white"/>
<path d="M12.25 12.25C12.0511 12.25 11.8603 12.329 11.7197 12.4697C11.579 12.6103 11.5 12.8011 11.5 13C11.5 13.1989 11.579 13.3897 11.7197 13.5303C11.8603 13.671 12.0511 13.75 12.25 13.75H16.25C16.4489 13.75 16.6397 13.671 16.7803 13.5303C16.921 13.3897 17 13.1989 17 13C17 12.8011 16.921 12.6103 16.7803 12.4697C16.6397 12.329 16.4489 12.25 16.25 12.25H12.25Z" fill="white"/>
</svg>
