<svg width="20" height="20" viewBox="0 0 20 20" fill="none" xmlns="http://www.w3.org/2000/svg">
<path fill-rule="evenodd" clip-rule="evenodd" d="M10 7.25006C9.31 7.25006 8.75 7.81007 8.75 8.50007C8.75 8.69898 8.67098 8.88974 8.53033 9.03039C8.38968 9.17105 8.19891 9.25007 8 9.25007C7.80109 9.25007 7.61032 9.17105 7.46967 9.03039C7.32902 8.88974 7.25 8.69898 7.25 8.50007C7.25025 8.0001 7.3868 7.50966 7.64496 7.0815C7.90312 6.65335 8.27311 6.30366 8.71515 6.07007C9.15719 5.83648 9.65455 5.72782 10.1537 5.75577C10.6529 5.78371 11.135 5.94722 11.5482 6.2287C11.9614 6.51018 12.2901 6.89898 12.4988 7.35328C12.7076 7.80758 12.7885 8.31019 12.733 8.80706C12.6774 9.30393 12.4874 9.77625 12.1835 10.1733C11.8796 10.5702 11.4732 10.8768 11.008 11.0601C10.9226 11.0916 10.8454 11.1419 10.782 11.2071C10.7686 11.2204 10.7578 11.2359 10.75 11.2531C10.7496 11.452 10.6702 11.6426 10.5293 11.783C10.3883 11.9234 10.1974 12.002 9.9985 12.0016C9.79959 12.0012 9.60898 11.9218 9.46861 11.7809C9.32824 11.6399 9.2496 11.449 9.25 11.2501C9.25 10.3851 9.946 9.86506 10.458 9.66406C10.7294 9.55781 10.9552 9.36003 11.0963 9.10493C11.2373 8.84983 11.2848 8.55345 11.2305 8.26706C11.1761 7.98067 11.0234 7.72227 10.7987 7.53656C10.574 7.35085 10.2915 7.24951 10 7.25006Z" fill="white"/>
<path d="M10 14.5C10.2652 14.5 10.5196 14.3946 10.7071 14.2071C10.8946 14.0196 11 13.7652 11 13.5C11 13.2348 10.8946 12.9804 10.7071 12.7929C10.5196 12.6054 10.2652 12.5 10 12.5C9.73478 12.5 9.48043 12.6054 9.29289 12.7929C9.10536 12.9804 9 13.2348 9 13.5C9 13.7652 9.10536 14.0196 9.29289 14.2071C9.48043 14.3946 9.73478 14.5 10 14.5Z" fill="white"/>
<path fill-rule="evenodd" clip-rule="evenodd" d="M10 17C10.9193 17 11.8295 16.8189 12.6788 16.4672C13.5281 16.1154 14.2997 15.5998 14.9497 14.9497C15.5998 14.2997 16.1154 13.5281 16.4672 12.6788C16.8189 11.8295 17 10.9193 17 10C17 9.08075 16.8189 8.1705 16.4672 7.32122C16.1154 6.47194 15.5998 5.70026 14.9497 5.05025C14.2997 4.40024 13.5281 3.88463 12.6788 3.53284C11.8295 3.18106 10.9193 3 10 3C8.14348 3 6.36301 3.7375 5.05025 5.05025C3.7375 6.36301 3 8.14348 3 10C3 11.8565 3.7375 13.637 5.05025 14.9497C6.36301 16.2625 8.14348 17 10 17ZM10 15.5C11.4587 15.5 12.8576 14.9205 13.8891 13.8891C14.9205 12.8576 15.5 11.4587 15.5 10C15.5 8.54131 14.9205 7.14236 13.8891 6.11091C12.8576 5.07946 11.4587 4.5 10 4.5C8.54131 4.5 7.14236 5.07946 6.11091 6.11091C5.07946 7.14236 4.5 8.54131 4.5 10C4.5 11.4587 5.07946 12.8576 6.11091 13.8891C7.14236 14.9205 8.54131 15.5 10 15.5Z" fill="white"/>
</svg>
