<svg width="16" height="16" viewBox="0 0 16 16" fill="none" xmlns="http://www.w3.org/2000/svg">
<path d="M2.625 1.375L2.34375 1.64062L1.64062 2.34375L1.375 2.625L1.57812 2.95312L2.625 4.70312L2.76562 4.95312H4.23438L6.23438 6.9375C4.44727 8.73242 2.17383 11.0137 2.09375 11.0938C1.31055 11.877 1.30859 13.1602 2.10938 13.9062C2.89062 14.6777 4.16406 14.6973 4.90625 13.9062C4.91211 13.9004 4.91602 13.8965 4.92188 13.8906L8 10.7969L11.0938 13.9062L11.1406 13.9375C11.9258 14.6777 13.1738 14.6875 13.9062 13.9062V13.8906H13.9219C14.6875 13.1074 14.6953 11.834 13.9062 11.0938L13.8906 11.0781L11.2812 8.48438C13.0371 8.32031 14.4121 6.83789 14.4375 5.04688H14.4531C14.4551 5.03711 14.4531 5.02539 14.4531 5.01562C14.4531 5.00977 14.4531 5.00586 14.4531 5C14.502 4.42188 14.377 3.86914 14.0781 3.39062L13.7344 2.85938L11.4062 5.1875L10.7031 4.45312L13.0781 2.07812L12.3906 1.79688C11.9883 1.625 11.5234 1.5 11 1.5C9.07812 1.5 7.5 3.07812 7.5 5C7.5 5.20898 7.54492 5.39062 7.57812 5.57812C7.35938 5.79688 7.19531 5.97656 6.9375 6.23438L4.95312 4.25V2.76562L4.70312 2.625L2.95312 1.57812L2.625 1.375ZM11 2.5C11.0703 2.5 11.1191 2.54102 11.1875 2.54688L9.29688 4.4375L9.64062 4.79688L11.0469 6.25L11.3906 6.60938L13.375 4.625C13.3848 4.74023 13.4668 4.82422 13.4531 4.95312V5C13.4531 6.37695 12.3301 7.5 10.9531 7.5C10.7695 7.5 10.5469 7.45703 10.2969 7.40625L10.0312 7.35938L9.84375 7.54688L4.20312 13.2031H4.1875V13.2188C3.83203 13.6074 3.21094 13.6172 2.79688 13.2031V13.1875H2.78125C2.39258 12.832 2.38281 12.2109 2.79688 11.7969C2.98633 11.6074 6.65625 7.90625 8.45312 6.10938L8.65625 5.90625L8.57812 5.625C8.53711 5.46289 8.5 5.18359 8.5 5C8.5 3.62305 9.62305 2.5 11 2.5ZM2.78125 2.625L3.95312 3.34375V3.84375L3.84375 3.95312H3.34375L2.625 2.78125L2.78125 2.625ZM10.0938 8.70312L13.2031 11.7969V11.8125H13.2188C13.6074 12.168 13.6172 12.7891 13.2031 13.2031H13.1875V13.2188C12.832 13.6074 12.2109 13.6172 11.7969 13.2031L8.70312 10.0938L10.0938 8.70312Z" fill="white"/>
</svg>
