<svg width="20" height="20" viewBox="0 0 20 20" fill="none" xmlns="http://www.w3.org/2000/svg">
<path d="M16.5 6.26C16.5 6.45891 16.421 6.64968 16.2803 6.79033C16.1397 6.93098 15.9489 7.01 15.75 7.01C15.5511 7.01 15.3603 6.93098 15.2197 6.79033C15.079 6.64968 15 6.45891 15 6.26V5.75C15 5.55109 14.921 5.36032 14.7803 5.21967C14.6397 5.07902 14.4489 5 14.25 5H5.75C5.55109 5 5.36032 5.07902 5.21967 5.21967C5.07902 5.36032 5 5.55109 5 5.75V6.26C5 6.45891 4.92098 6.64968 4.78033 6.79033C4.63968 6.93098 4.44891 7.01 4.25 7.01C4.05109 7.01 3.86032 6.93098 3.71967 6.79033C3.57902 6.64968 3.5 6.45891 3.5 6.26V5.75C3.5 5.15326 3.73705 4.58097 4.15901 4.15901C4.58097 3.73705 5.15326 3.5 5.75 3.5H14.25C14.8467 3.5 15.419 3.73705 15.841 4.15901C16.2629 4.58097 16.5 5.15326 16.5 5.75V6.26Z" fill="white"/>
<path d="M10.7502 16.01C10.7502 16.2089 10.6711 16.3996 10.5305 16.5403C10.3898 16.6809 10.1991 16.76 10.0002 16.76C9.80124 16.76 9.61048 16.6809 9.46982 16.5403C9.32917 16.3996 9.25015 16.2089 9.25015 16.01V9.31996L7.53015 11.04C7.46149 11.1136 7.37869 11.1727 7.28669 11.2137C7.19469 11.2547 7.09538 11.2768 6.99468 11.2786C6.89397 11.2803 6.79394 11.2618 6.70056 11.2241C6.60717 11.1864 6.52233 11.1302 6.45112 11.059C6.3799 10.9878 6.32375 10.9029 6.28603 10.8096C6.24831 10.7162 6.22979 10.6161 6.23156 10.5154C6.23334 10.4147 6.25538 10.3154 6.29637 10.2234C6.33736 10.1314 6.39647 10.0486 6.47015 9.97996L9.47015 6.97996C9.61078 6.83951 9.8014 6.76062 10.0002 6.76062C10.1989 6.76062 10.3895 6.83951 10.5302 6.97996L13.5302 9.97996C13.6038 10.0486 13.6629 10.1314 13.7039 10.2234C13.7449 10.3154 13.767 10.4147 13.7687 10.5154C13.7705 10.6161 13.752 10.7162 13.7143 10.8096C13.6766 10.9029 13.6204 10.9878 13.5492 11.059C13.478 11.1302 13.3931 11.1864 13.2998 11.2241C13.2064 11.2618 13.1063 11.2803 13.0056 11.2786C12.9049 11.2768 12.8056 11.2547 12.7136 11.2137C12.6216 11.1727 12.5388 11.1136 12.4702 11.04L10.7502 9.31996V16.01Z" fill="white"/>
</svg>
