<svg width="15" height="17" viewBox="0 0 15 17" fill="none" xmlns="http://www.w3.org/2000/svg">
<path fill-rule="evenodd" clip-rule="evenodd" d="M7.50006 0C6.93392 -1.17615e-08 6.37332 0.109929 5.85028 0.323512C5.32723 0.537095 4.85198 0.850148 4.45166 1.2448C4.05133 1.63945 3.73378 2.10796 3.51713 2.6236C3.30047 3.13923 3.18896 3.69188 3.18896 4.25C3.18896 4.80812 3.30047 5.36077 3.51713 5.87641C3.73378 6.39204 4.05133 6.86056 4.45166 7.25521C4.85198 7.64986 5.32723 7.96291 5.85028 8.17649C6.37332 8.39008 6.93392 8.50001 7.50006 8.50001C8.64344 8.50001 9.73998 8.05224 10.5485 7.25521C11.357 6.45818 11.8112 5.37717 11.8112 4.25C11.8112 3.12283 11.357 2.04183 10.5485 1.2448C9.73998 0.447767 8.64344 2.37534e-08 7.50006 0ZM5.03658 4.25C5.03658 3.60591 5.29612 2.98819 5.75812 2.53274C6.22011 2.0773 6.84671 1.82143 7.50006 1.82143C8.15342 1.82143 8.78001 2.0773 9.24201 2.53274C9.704 2.98819 9.96355 3.60591 9.96355 4.25C9.96355 4.8941 9.704 5.51182 9.24201 5.96726C8.78001 6.42271 8.15342 6.67858 7.50006 6.67858C6.84671 6.67858 6.22011 6.42271 5.75812 5.96726C5.29612 5.51182 5.03658 4.8941 5.03658 4.25Z" fill="white"/>
<path fill-rule="evenodd" clip-rule="evenodd" d="M14.2549 13.6327C13.5855 12.4453 12.6062 11.4559 11.4186 10.7671C10.2309 10.0783 8.87797 9.71509 7.5 9.71509C6.12203 9.71509 4.76913 10.0783 3.58145 10.7671C2.39377 11.4559 1.41451 12.4453 0.745128 13.6327L0.206857 14.5871C0.0677003 14.8344 -0.00355577 15.1133 0.000136531 15.3961C0.00382884 15.6789 0.0823418 15.9558 0.22791 16.1996C0.373478 16.4433 0.581059 16.6453 0.830122 16.7857C1.07919 16.926 1.3611 16.9999 1.648 16.9999H13.352C13.6389 16.9999 13.9208 16.926 14.1699 16.7857C14.4189 16.6453 14.6265 16.4433 14.7721 16.1996C14.9177 15.9558 14.9962 15.6789 14.9999 15.3961C15.0036 15.1133 14.9323 14.8344 14.7931 14.5871L14.2549 13.6327ZM2.35994 14.5167C2.86899 13.6128 3.61404 12.8596 4.51784 12.3351C5.42163 11.8107 6.45127 11.5342 7.5 11.5342C8.54873 11.5342 9.57837 11.8107 10.4822 12.3351C11.386 12.8596 12.131 13.6128 12.6401 14.5167L13.012 15.1785H1.98796L2.35994 14.5167Z" fill="white"/>
</svg>
