<svg width="23" height="23" viewBox="0 0 23 23" fill="none" xmlns="http://www.w3.org/2000/svg">
<path fill-rule="evenodd" clip-rule="evenodd" d="M15 12C15 13.6569 13.6569 15 12 15C10.3431 15 9 13.6569 9 12C9 10.3431 10.3431 9 12 9C13.6569 9 15 10.3431 15 12ZM13.5 12C13.5 12.8284 12.8284 13.5 12 13.5C11.1716 13.5 10.5 12.8284 10.5 12C10.5 11.1716 11.1716 10.5 12 10.5C12.8284 10.5 13.5 11.1716 13.5 12Z" fill="white"/>
<path fill-rule="evenodd" clip-rule="evenodd" d="M12 6C9.52353 6 7.65153 7.22977 6.42264 8.53216C5.80748 9.18413 5.34017 9.86704 5.02329 10.4545C4.86488 10.7481 4.73973 11.0259 4.65225 11.2717C4.57143 11.4987 4.5 11.7602 4.5 12C4.5 12.2398 4.57143 12.5013 4.65225 12.7283C4.73973 12.9741 4.86488 13.2519 5.02329 13.5455C5.34017 14.133 5.80748 14.8159 6.42264 15.4678C7.65153 16.7702 9.52353 18 12 18C14.4765 18 16.3485 16.7702 17.5774 15.4678C18.1925 14.8159 18.6598 14.133 18.9767 13.5455C19.1351 13.2519 19.2603 12.9741 19.3478 12.7283C19.4286 12.5013 19.5 12.2398 19.5 12C19.5 11.7602 19.4286 11.4987 19.3478 11.2717C19.2603 11.0259 19.1351 10.7481 18.9767 10.4545C18.6598 9.86704 18.1925 9.18413 17.5774 8.53216C16.3485 7.22977 14.4765 6 12 6ZM6.00141 12.0021L6.00103 12L6.00141 11.9979C6.00509 11.9781 6.01827 11.9071 6.0654 11.7747C6.12269 11.6137 6.21422 11.4062 6.34345 11.1666C6.60183 10.6876 6.9936 10.1127 7.51365 9.56159C8.55519 8.45773 10.0582 7.5 12 7.5C13.9418 7.5 15.4448 8.45773 16.4864 9.56159C17.0064 10.1127 17.3982 10.6876 17.6566 11.1666C17.7858 11.4062 17.8773 11.6137 17.9346 11.7747C17.9817 11.9071 17.9949 11.9781 17.9986 11.9979L17.999 12L17.9986 12.0021C17.9949 12.0219 17.9817 12.0929 17.9346 12.2253C17.8773 12.3863 17.7858 12.5938 17.6566 12.8334C17.3982 13.3124 17.0064 13.8873 16.4864 14.4384C15.4448 15.5423 13.9418 16.5 12 16.5C10.0582 16.5 8.55519 15.5423 7.51365 14.4384C6.9936 13.8873 6.60183 13.3124 6.34345 12.8334C6.21422 12.5938 6.12269 12.3863 6.0654 12.2253C6.01827 12.0929 6.00509 12.0219 6.00141 12.0021Z" fill="white"/>
</svg>
