<svg width="21" height="22" viewBox="0 0 21 22" fill="none" xmlns="http://www.w3.org/2000/svg">
<path fill-rule="evenodd" clip-rule="evenodd" d="M6.8458 4.21303C7.68309 3.86735 8.59385 3.7645 9.48223 3.91532C10.3706 4.06613 11.2038 4.46504 11.894 5.07004C12.5842 5.67505 13.106 6.46379 13.4045 7.35326C13.7029 8.24273 13.767 9.20004 13.59 10.1244L16.5121 13.1846C17.0329 13.7302 17.3254 14.4701 17.3254 15.2416C17.3254 16.0132 17.0329 16.7531 16.5121 17.2986C15.9913 17.8442 15.2851 18.1507 14.5486 18.1507C13.8121 18.1507 13.1059 17.8442 12.5851 17.2986L9.664 14.2384C8.78158 14.4238 7.86777 14.3565 7.01875 14.0437C6.16974 13.7309 5.41691 13.1841 4.83951 12.4609C4.2621 11.7377 3.88147 10.8648 3.73766 9.93402C3.59386 9.00329 3.69221 8.04915 4.02235 7.17203C4.07019 7.04465 4.14753 6.93174 4.2474 6.84348C4.34728 6.75522 4.46655 6.69438 4.59446 6.66644C4.72237 6.63851 4.85491 6.64435 4.98013 6.68345C5.10535 6.72256 5.21931 6.79369 5.31175 6.89043L7.04005 8.70213C7.20927 8.87137 7.43497 8.96453 7.6689 8.96169C7.90283 8.95885 8.12642 8.86023 8.29184 8.68693C8.45726 8.51363 8.5514 8.2794 8.55411 8.03433C8.55682 7.78926 8.4679 7.5528 8.30635 7.37553L6.57805 5.56493C6.4857 5.46809 6.41781 5.3487 6.38048 5.21752C6.34316 5.08634 6.33758 4.94749 6.36424 4.81349C6.39091 4.67948 6.44898 4.55453 6.53323 4.4499C6.61748 4.34527 6.72526 4.26425 6.84685 4.21413L6.8458 4.21303ZM8.74525 5.50003L9.4204 6.20843C9.65724 6.44697 9.84629 6.7326 9.97649 7.04861C10.1067 7.36462 10.1754 7.70466 10.1786 8.04883C10.1819 8.393 10.1195 8.73439 9.99532 9.05302C9.87108 9.37166 9.68744 9.66113 9.45512 9.90451C9.22281 10.1479 8.94649 10.3403 8.64234 10.4704C8.33819 10.6006 8.01232 10.6659 7.6838 10.6625C7.35527 10.6591 7.03069 10.5871 6.72904 10.4507C6.4274 10.3143 6.15475 10.1163 5.92705 9.86813L5.25085 9.15973C5.26032 9.71555 5.39271 10.2615 5.6376 10.7546C5.8825 11.2478 6.23323 11.6747 6.66224 12.0019C7.09125 12.3291 7.58683 12.5475 8.11005 12.6401C8.63327 12.7328 9.16986 12.697 9.67765 12.5356C9.81408 12.4922 9.95919 12.4884 10.0975 12.5247C10.2358 12.5609 10.3622 12.6358 10.4631 12.7413L13.6992 16.1315C13.9244 16.3675 14.23 16.5001 14.5486 16.5001C14.8672 16.5001 15.1728 16.3675 15.3981 16.1315C15.6233 15.8955 15.7499 15.5754 15.7499 15.2416C15.7499 14.9079 15.6233 14.5877 15.3981 14.3517L12.162 10.9615C12.0612 10.8559 11.9897 10.7235 11.9551 10.5786C11.9205 10.4337 11.9242 10.2817 11.9656 10.1387C12.1198 9.60687 12.1541 9.0448 12.0659 8.49668C11.9777 7.94857 11.7694 7.42935 11.4573 6.97983C11.1452 6.5303 10.7379 6.16271 10.2673 5.90595C9.79675 5.64918 9.27574 5.51024 8.74525 5.50003Z" fill="white"/>
</svg>
